<?xml version="1.0" encoding="utf-8"?>
<!-- Generator: Adobe Illustrator 25.0.1, SVG Export Plug-In . SVG Version: 6.00 Build 0)  -->
<svg version="1.1" id="Capa_1" xmlns="http://www.w3.org/2000/svg" xmlns:xlink="http://www.w3.org/1999/xlink" x="0px" y="0px"
	 viewBox="0 0 978.9 362.5" style="enable-background:new 0 0 978.9 362.5;" xml:space="preserve">
<style type="text/css">
	.st0{fill:#FFFFFF;}
	.st1{fill:url(#SVGID_1_);}
	.st2{fill:#F5DA35;}
	.st3{opacity:0.15;}
	.st4{fill-rule:evenodd;clip-rule:evenodd;fill:#252324;}
	.st5{clip-path:url(#SVGID_3_);}
	.st6{fill:#C20B31;}
	.st7{fill:#F5DB34;}
	.st8{fill:#262424;}
	.st9{fill-rule:evenodd;clip-rule:evenodd;fill:#C20B31;}
	.st10{fill:#505052;}
</style>
<g>
	
		<image style="overflow:visible;opacity:0.4;" width="746" height="81" xlink:href="21AAB8BA.png"  transform="matrix(1 0 0 1 124.9782 263.7094)">
	</image>
	<g>
		<g>
			<g>
				<path class="st0" d="M832.8,269.2H159.1c-16.1,0-29.2,15-29.2,33.5l0,0c0,18.5,13.1,33.5,29.2,33.5h673.7
					c16.1,0,29.2-15,29.2-33.5l0,0C861.9,284.2,848.9,269.2,832.8,269.2z"/>
				<linearGradient id="SVGID_1_" gradientUnits="userSpaceOnUse" x1="495.9282" y1="270.246" x2="495.9282" y2="330.1252">
					<stop  offset="0" style="stop-color:#C10E1A"/>
					<stop  offset="1" style="stop-color:#A31515"/>
				</linearGradient>
				<path class="st1" d="M827.9,274.2H164c-15.7,0-28.4,12.7-28.4,28.4l0,0c0,15.7,12.7,28.4,28.4,28.4h663.9
					c15.7,0,28.4-12.7,28.4-28.4l0,0C856.3,287,843.5,274.2,827.9,274.2z"/>
			</g>
			<g>
				<path class="st0" d="M216.3,282.8c2.4-0.4,5.4-0.7,9.3-0.7c4.7,0,7.9,1.1,9.8,3.1c1.7,1.8,2.4,4.4,1.8,7.7
					c-0.6,3.3-2.1,6-4.3,7.9c-3,2.7-7.4,4-12,4c-1.4,0-2.7-0.1-3.8-0.3l-2.8,14.8h-4.8L216.3,282.8z M217.7,300.6
					c1,0.3,2.3,0.4,3.9,0.4c5.7,0,9.8-2.8,10.7-7.9c0.9-4.9-2.1-7.2-7.3-7.2c-2.1,0-3.7,0.2-4.6,0.4L217.7,300.6z"/>
				<path class="st0" d="M252.7,319.2l0.2-3.3h-0.2c-1.9,2.1-5.1,3.9-8.8,3.9c-5.4,0-7.4-3.8-6.7-7.6c1.2-6.4,7.6-9.9,17.8-9.8
					l0.1-0.5c0.4-2.2,0.6-6.1-4.9-6.1c-2.5,0-5.2,0.8-7.3,2l-0.5-3.2c2.5-1.4,5.8-2.4,9.1-2.4c8.1,0,9,5.5,8,10.8l-1.9,9.9
					c-0.4,2.3-0.7,4.5-0.8,6.3H252.7z M254.5,305.7c-5.2-0.1-11.4,0.8-12.3,6c-0.6,3.1,1.2,4.6,3.7,4.6c3.4,0,6-2.2,7.2-4.4
					c0.3-0.5,0.5-1,0.6-1.5L254.5,305.7z"/>
				<path class="st0" d="M268.9,301c0.6-3.1,1-5.8,1.3-8.3h4.2l-0.8,5.2h0.2c1.9-3.6,5.2-5.8,8.4-5.8c0.5,0,0.9,0.1,1.3,0.2
					l-0.9,4.5c-0.5-0.1-1-0.2-1.6-0.2c-3.4,0-6.3,2.6-7.6,6.2c-0.2,0.7-0.5,1.4-0.6,2.2l-2.7,14.1h-4.8L268.9,301z"/>
				<path class="st0" d="M298.9,319.2l0.2-3.3h-0.2c-1.9,2.1-5.1,3.9-8.8,3.9c-5.4,0-7.4-3.8-6.7-7.6c1.2-6.4,7.6-9.9,17.8-9.8
					l0.1-0.5c0.4-2.2,0.6-6.1-4.9-6.1c-2.5,0-5.2,0.8-7.3,2l-0.5-3.2c2.5-1.4,5.8-2.4,9.1-2.4c8.1,0,9,5.5,8,10.8l-1.9,9.9
					c-0.4,2.3-0.7,4.5-0.8,6.3H298.9z M300.7,305.7c-5.2-0.1-11.4,0.8-12.3,6c-0.6,3.1,1.2,4.6,3.7,4.6c3.4,0,6-2.2,7.2-4.4
					c0.3-0.5,0.5-1,0.6-1.5L300.7,305.7z"/>
				<path class="st2" d="M336.6,285.1l-1.4,7.6h6.9l-0.7,3.7h-6.9l-2.7,14.3c-0.6,3.3,0,5.1,2.6,5.1c1.3,0,2.2-0.2,2.9-0.3l-0.5,3.6
					c-1,0.4-2.5,0.7-4.4,0.7c-2.2,0-3.9-0.7-4.8-2c-1.1-1.4-1.1-3.8-0.6-6.9l2.7-14.4h-4.1l0.7-3.7h4.1l1.2-6.3L336.6,285.1z"/>
				<path class="st2" d="M369.7,305.7c-1.8,9.8-9.4,14.1-15.8,14.1c-7.2,0-11.7-5.3-10.1-13.6c1.7-8.9,8.5-14.1,15.8-14.1
					C367.2,292.1,371.3,297.7,369.7,305.7z M348.7,306c-1.1,5.8,1.4,10.2,6.1,10.2c4.6,0,8.9-4.3,10-10.3c0.8-4.5-0.3-10.2-6-10.2
					C353.1,295.7,349.6,301,348.7,306z"/>
				<path class="st2" d="M404.6,280.4l-6,32c-0.4,2.4-0.9,5-1.1,6.8h-4.3l0.6-4.6h-0.1c-2,3-5.7,5.2-10,5.2
					c-6.4,0-10.3-5.4-8.8-13.5c1.6-8.8,8.1-14.2,14.6-14.2c4,0,6.4,1.9,7.2,4h0.1l3-15.8H404.6z M395.4,303.5c0.1-0.6,0.2-1.4,0.2-2
					c-0.1-3.1-2.3-5.6-5.9-5.6c-5,0-8.8,4.4-9.9,10.2c-1,5.4,0.8,9.8,6,9.8c3.2,0,6.6-2.1,8.1-5.7c0.3-0.7,0.5-1.3,0.6-2.1
					L395.4,303.5z"/>
				<path class="st2" d="M432.8,305.7c-1.8,9.8-9.4,14.1-15.8,14.1c-7.2,0-11.7-5.3-10.1-13.6c1.7-8.9,8.5-14.1,15.8-14.1
					C430.2,292.1,434.3,297.7,432.8,305.7z M411.8,306c-1.1,5.8,1.4,10.2,6.1,10.2c4.6,0,8.9-4.3,10-10.3c0.8-4.5-0.3-10.2-6-10.2
					C416.2,295.7,412.7,301,411.8,306z"/>
				<path class="st2" d="M437.7,314.3c1.2,0.9,3.6,1.9,6,1.9c3.5,0,5.5-1.8,5.9-3.9c0.4-2.3-0.7-3.6-4-4.9c-4.4-1.7-6.2-4.3-5.6-7.5
					c0.8-4.3,4.9-7.8,10.6-7.8c2.7,0,4.9,0.8,6.2,1.6l-1.9,3.5c-0.9-0.7-2.7-1.5-5.1-1.5c-2.8,0-4.7,1.6-5.1,3.6
					c-0.4,2.2,1,3.2,4.2,4.5c4.3,1.8,6.2,4,5.4,8c-0.9,4.6-5.1,7.9-11.4,7.9c-2.9,0-5.4-0.7-7.1-1.8L437.7,314.3z"/>
				<path class="st2" d="M455.2,325.9c1.8-3.2,4.4-9.1,5.8-13.1l5.5-0.5c-2.1,4.7-5.7,10.7-7.7,13.3L455.2,325.9z"/>
				<path class="st0" d="M488.1,301.4c0.6-3.4,1-6.1,1.4-8.6h4.3l-0.6,4.5h0.1c2.6-3.2,6.1-5.1,10.4-5.1c6.4,0,10.2,5.4,8.7,13.5
					c-1.8,9.5-8.5,14.2-14.7,14.2c-3.5,0-6.3-1.5-7.4-4.2h-0.1l-2.7,14.4h-4.8L488.1,301.4z M491.5,308.4c-0.1,0.7-0.1,1.4-0.2,2
					c0.2,3.3,2.7,5.6,6.2,5.6c5.1,0,8.8-4.2,10-10.2c1-5.3-0.9-9.8-6-9.8c-3.3,0-6.8,2.4-8.4,6c-0.3,0.6-0.6,1.3-0.7,2L491.5,308.4z
					"/>
				<path class="st0" d="M531.6,319.2l0.2-3.3h-0.2c-1.9,2.1-5.1,3.9-8.8,3.9c-5.4,0-7.4-3.8-6.7-7.6c1.2-6.4,7.6-9.9,17.8-9.8
					l0.1-0.5c0.4-2.2,0.6-6.1-4.9-6.1c-2.5,0-5.2,0.8-7.3,2l-0.5-3.2c2.5-1.4,5.8-2.4,9.1-2.4c8.1,0,9,5.5,8,10.8l-1.9,9.9
					c-0.4,2.3-0.7,4.5-0.8,6.3H531.6z M533.4,305.7c-5.2-0.1-11.4,0.8-12.3,6c-0.6,3.1,1.2,4.6,3.7,4.6c3.4,0,6-2.2,7.2-4.4
					c0.3-0.5,0.5-1,0.6-1.5L533.4,305.7z"/>
				<path class="st0" d="M547.8,301c0.6-3.1,1-5.8,1.3-8.3h4.2l-0.8,5.2h0.2c1.9-3.6,5.2-5.8,8.4-5.8c0.5,0,0.9,0.1,1.3,0.2
					l-0.9,4.5c-0.5-0.1-1-0.2-1.6-0.2c-3.4,0-6.3,2.6-7.6,6.2c-0.2,0.7-0.5,1.4-0.6,2.2l-2.7,14.1h-4.8L547.8,301z"/>
				<path class="st0" d="M577.8,319.2l0.2-3.3h-0.2c-1.9,2.1-5.1,3.9-8.8,3.9c-5.4,0-7.4-3.8-6.7-7.6c1.2-6.4,7.6-9.9,17.8-9.8
					l0.1-0.5c0.4-2.2,0.6-6.1-4.9-6.1c-2.5,0-5.2,0.8-7.3,2l-0.5-3.2c2.5-1.4,5.8-2.4,9.1-2.4c8.1,0,9,5.5,8,10.8l-1.9,9.9
					c-0.4,2.3-0.7,4.5-0.8,6.3H577.8z M579.6,305.7c-5.2-0.1-11.4,0.8-12.3,6c-0.6,3.1,1.2,4.6,3.7,4.6c3.4,0,6-2.2,7.2-4.4
					c0.3-0.5,0.5-1,0.6-1.5L579.6,305.7z"/>
				<path class="st2" d="M603.5,314.3c1.2,0.9,3.6,1.9,6,1.9c3.5,0,5.5-1.8,5.9-3.9c0.4-2.3-0.7-3.6-4-4.9c-4.4-1.7-6.2-4.3-5.6-7.5
					c0.8-4.3,4.9-7.8,10.6-7.8c2.7,0,4.9,0.8,6.2,1.6l-1.9,3.5c-0.9-0.7-2.7-1.5-5.1-1.5c-2.8,0-4.7,1.6-5.1,3.6
					c-0.4,2.2,1,3.2,4.2,4.5c4.3,1.8,6.2,4,5.4,8c-0.9,4.6-5.1,7.9-11.4,7.9c-2.9,0-5.4-0.7-7.1-1.8L603.5,314.3z"/>
				<path class="st2" d="M626,319.2l5-26.5h4.8l-5,26.5H626z M637.8,285.3c-0.3,1.6-1.7,3-3.6,3c-1.7,0-2.7-1.3-2.3-3
					c0.3-1.7,1.8-3,3.6-3C637.2,282.3,638.1,283.6,637.8,285.3z"/>
				<path class="st2" d="M644.9,306.8c-1.1,6.5,2.5,9.2,7.3,9.2c3.4,0,5.6-0.6,7.6-1.4l0.2,3.4c-1.8,0.8-4.9,1.6-9.1,1.6
					c-8.2,0-12-5.4-10.5-13.3c1.5-8,7.4-14.3,15.1-14.3c8.6,0,9.5,7.6,8.6,12.5c-0.2,1-0.4,1.8-0.6,2.2H644.9z M659.7,303.4
					c0.6-3.1,0.2-7.8-5.2-7.8c-4.9,0-7.8,4.5-8.9,7.8H659.7z"/>
				<path class="st2" d="M672.1,299.9c0.5-2.7,0.9-5,1.1-7.2h4.2l-0.6,4.3h0.2c2-2.5,4.9-4.9,9.2-4.9c3.6,0,5.9,2.2,6.5,5.3h0.1
					c1.1-1.5,2.4-2.6,3.6-3.4c1.8-1.2,3.7-1.9,6.2-1.9c3.5,0,8.3,2.3,6.5,11.5l-2.9,15.6h-4.7l2.8-15c1-5.1-0.3-8.2-4.2-8.2
					c-2.7,0-5.2,2-6.5,4.4c-0.3,0.7-0.7,1.5-0.8,2.4l-3.1,16.4H685l3-15.9c0.8-4.2-0.5-7.3-4.2-7.3c-3,0-5.7,2.4-6.9,4.8
					c-0.4,0.7-0.7,1.5-0.8,2.4l-3,16h-4.7L672.1,299.9z"/>
				<path class="st2" d="M718.5,301.4c0.6-3.4,1-6.1,1.4-8.6h4.3l-0.6,4.5h0.1c2.6-3.2,6.1-5.1,10.4-5.1c6.4,0,10.2,5.4,8.7,13.5
					c-1.8,9.5-8.5,14.2-14.7,14.2c-3.5,0-6.3-1.5-7.4-4.2h-0.1l-2.7,14.4h-4.8L718.5,301.4z M721.9,308.4c-0.1,0.7-0.1,1.4-0.2,2
					c0.2,3.3,2.7,5.6,6.2,5.6c5.1,0,8.8-4.2,10-10.2c1-5.3-0.9-9.8-6-9.8c-3.3,0-6.8,2.4-8.4,6c-0.3,0.6-0.6,1.3-0.7,2L721.9,308.4z
					"/>
				<path class="st2" d="M750.8,301c0.6-3.1,1-5.8,1.3-8.3h4.2l-0.8,5.2h0.2c1.9-3.6,5.2-5.8,8.4-5.8c0.5,0,0.9,0.1,1.3,0.2
					l-0.9,4.5c-0.5-0.1-1-0.2-1.6-0.2c-3.4,0-6.3,2.6-7.6,6.2c-0.2,0.7-0.5,1.4-0.6,2.2l-2.7,14.1h-4.8L750.8,301z"/>
				<path class="st2" d="M770.8,306.8c-1.1,6.5,2.5,9.2,7.3,9.2c3.4,0,5.6-0.6,7.6-1.4l0.2,3.4c-1.8,0.8-4.9,1.6-9.1,1.6
					c-8.2,0-12-5.4-10.5-13.3c1.5-8,7.4-14.3,15.1-14.3c8.6,0,9.5,7.6,8.6,12.5c-0.2,1-0.4,1.8-0.6,2.2H770.8z M785.6,303.4
					c0.6-3.1,0.2-7.8-5.2-7.8c-4.9,0-7.8,4.5-8.9,7.8H785.6z"/>
			</g>
		</g>
	</g>
</g>
<g>
	<g>
		<path class="st3" d="M178.8,19.3c0,0-130.1-7.4-131,25.1c0,0-4.1,87.1-4.6,113.6c-0.5,22.4,19.8,36.7,42.1,36
			c26-0.9,105.8-7.6,105.8-7.6c20.2-28.5,28.2-126.5,28.2-126.5C219.4,37.6,201.2,19.3,178.8,19.3L178.8,19.3z"/>
		<g class="st3">
			<path class="st4" d="M593.3,216.4c-0.1-0.1-0.2-0.1-0.3-0.2l0.4,0C593.3,216.3,593.3,216.3,593.3,216.4z"/>
		</g>
		<g>
			<path class="st0" d="M183.1,11.3H87c-21.9,0-39.8,17.8-39.8,39.8v96.1c0,21.9,17.8,39.8,39.8,39.8h96.1
				c21.9,0,39.8-17.8,39.8-39.8V51C222.9,29.1,205.1,11.3,183.1,11.3L183.1,11.3z"/>
			<g>
				<g>
					<g>
						<defs>
							<path id="SVGID_2_" d="M192.5,175.4H77.6c-10.3,0-18.8-8.4-18.8-18.8V41.6c0-10.3,8.4-18.8,18.8-18.8h114.9
								c10.3,0,18.8,8.4,18.8,18.8v114.9C211.3,166.9,202.9,175.4,192.5,175.4z"/>
						</defs>
						<clipPath id="SVGID_3_">
							<use xlink:href="#SVGID_2_"  style="overflow:visible;"/>
						</clipPath>
						<g class="st5">
							<polygon class="st6" points="246.4,-12 127.2,191.3 204.2,191.3 322.6,-12 							"/>
							<polygon class="st6" points="74.5,-12 -44.7,191.3 32.3,191.3 150.7,-12 							"/>
							<polygon class="st7" points="160.4,-12 41.2,191.3 118.2,191.3 236.6,-12 							"/>
						</g>
					</g>
				</g>
			</g>
		</g>
		<g>
			<g class="st3">
				<path class="st8" d="M908.9,58.2L908.9,58.2c-10.7-5.4-23-8.2-36.7-8.2c-0.1,0-0.1,0-0.2,0c-18.4,0-32.7,4.5-42.6,13.3
					c0-0.4,0-0.7,0.1-1.1c0.2-7.9-2.8-15.4-8.4-20.9c-5.6-5.6-13.1-8.6-21.1-8.4h0c-15.9,0.3-29.1,13.3-29.6,29.1
					c-2-1.5-4-2.7-5.9-3.7c-10.7-5.4-23-8.2-36.7-8.2c-0.1,0-0.1,0-0.2,0c-21.9,0-37.9,6.3-47.8,18.7c-1.3,1.7-2.5,3.5-3.6,5.4
					c-0.9-1.2-1.7-2.4-2.7-3.5c0,0,0,0,0,0c-10.5-12.5-25.6-18.8-43.4-18.3c-6.6,0.2-12.6,1.3-17.9,3.2L612.1,32
					c0-3.5-1.4-6.8-3.9-9.2c-2.5-2.4-5.9-3.7-9.3-3.6l-27.9,0.7c-7,0.2-12.6,6-12.6,13l0.2,38.2c-4.6-4.7-9.8-8.4-15.7-11.1
					c-8.8-4.1-18.6-6.2-29.2-6.3c-16.2-0.2-30,4.3-41.1,13.4c-1.6-3.5-4.8-6.3-8.7-7.2c-10.6-2.6-20.1-1.6-27.9,1.1
					c-2.1-4.4-6.5-7.5-11.7-7.5h-27.3c-3.4,0-6.7,1.4-9.1,3.8c-2.4,2.4-3.8,5.7-3.8,9.2l0,11.2c-4-10.3-11.2-16.2-17.6-19.4
					c-10.7-5.4-23-8.2-36.7-8.2c-21.7,0-37.7,6.1-47.6,18.3V32.9c0-7.1-5.8-12.9-12.9-12.9h-29.4c-7.1,0-12.9,5.8-12.9,12.9v137.7
					c0,7.1,5.8,12.9,12.9,12.9h29.4c5.8,0,10.7-3.8,12.3-9.1c0.1,0.1,0.1,0.1,0.2,0.2c8.6,7.4,19.4,11.2,32.2,11.2
					c1.4,0,2.8,0,4.2,0c1.7,0,3.5,0,5.2,0c18.7,0,38.8-1,51.9-14.1c4-4,7-8.8,9-14.4l0,13.6c0,7.1,5.8,12.9,12.9,12.9h21.9
					c-0.2,0.6-0.4,1.1-0.5,1.7c-1.8,0.3-3.5,0.9-5.1,1.8c-0.5,0.3-1.1,0.6-1.5,0.9c-0.7-0.5-1.4-0.9-2.2-1.3c-2.4-1.2-5.1-1.8-8-1.8
					c-5,0-9.7,1.9-13.2,5.4c-3.5,3.5-5.4,8.2-5.4,13.2c0,1.9,0.3,3.8,0.8,5.5c0.3,0.9,0.6,1.8,0.9,2.8c0,0,0,0.1,0.1,0.1l7.3,18.8
					c0.6,1.6,1.2,3,2,4.3c1.2,2.1,2.7,3.9,4.5,5.4c2,1.6,4.3,2.8,7,3.4c1.8,0.4,3.8,0.7,6.1,0.7c2.6,0,4.9-0.3,6.9-0.9
					c2.4-0.7,4.5-1.7,6.3-3c0.6,0.5,1.2,0.9,1.8,1.3c3,1.9,6.4,2.8,10.1,2.8c0.9,0,1.8-0.1,3-0.2c1.4-0.2,2.8-0.6,4.3-1.2
					c0.5-0.2,1.1-0.5,1.6-0.8c0.6,0.3,1.2,0.6,1.8,0.9c2.3,0.9,4.6,1.4,7.1,1.4c4,0,7.9-1.3,11.1-3.6c2-1.5,3.7-3.4,5-5.6
					c1,1.4,2.2,2.6,3.6,3.8c2.4,1.9,5.3,3.4,8.7,4.3c1.6,0.4,3.1,0.7,4.7,0.8c1.1,0.1,2.3,0.1,3.5,0.1c0.7,0,1.4,0,2.6-0.1
					c2.1-0.2,4.2-0.7,6.2-1.6c0.4-0.2,0.8-0.4,1.2-0.6c1.1,0.5,2.2,1,3.4,1.4c2.6,0.8,5.2,1.2,7.6,1.2c2.2,0,4.3-0.3,6.4-0.9
					c0.7-0.2,1.3-0.4,1.9-0.6c0.3,0.1,0.5,0.2,0.8,0.3c4.5,1.7,9.7,1.5,14.6-0.9c0.2-0.1,0.3-0.2,0.5-0.3c2.9,1.4,6.6,2.4,11.3,2.4
					c2.7,0,5-0.2,7.2-0.8c0.8-0.2,1.5-0.4,2.2-0.6c2.1,0.8,4.4,1.2,6.8,1.2c3.2,0,6.1-0.7,8.7-2c0.6,0.3,1.2,0.6,1.8,0.8
					c2.1,0.8,4.3,1.2,6.7,1.2c2.2,0,4.5-0.4,6.8-1.2c1.2-0.4,2.4-1,3.5-1.8c4.6,4.2,10.7,6.9,17.4,6.9c7.8,0,14.9-3.6,19.6-9.1
					c2.8,2.1,5.9,3.6,9.2,4.5c3.1,0.8,6.4,1.3,9.6,1.3c3.8,0,7.3-0.5,10.5-1.5c2.5-0.8,4.9-1.9,6.9-3.2c0.8,0.5,1.5,1,2.4,1.4
					c1.9,1,4.1,1.8,6.6,2.4c2.5,0.6,5.2,0.9,8.2,0.9c3.8,0,7.5-0.6,11-1.7c2-0.7,3.9-1.5,5.7-2.6c1.3,0.9,2.6,1.7,4.1,2.3
					c5.2,2.1,10.9,1.8,15.8-0.8c0.4-0.2,0.9-0.5,1.3-0.8c1.2,0.8,2.5,1.4,3.9,1.9c2,0.7,4.1,1.1,6.2,1.1c2.6,0,5.1-0.5,7.5-1.5
					c0.9-0.4,1.7-0.8,2.5-1.3c2.9,1.9,6.3,2.8,9.8,2.8c2.9,0,5.8-0.7,8.5-2c0.8-0.4,1.5-0.8,2.2-1.3c0.5,0.7,1,1.3,1.6,1.9
					c2.5,2.5,5.9,3.9,9.4,3.8c2.2,0,3.9,0,5.4,0.1c0.2,0,0.5,0,0.7,0c0.7,0,1.4,0,1.9,0c0.5,0,0.9,0,1.3,0c0.2,0,0.3,0,0.5,0
					c16.3-0.3,27.6-4.5,34.5-12.7c6.4-7.6,9.6-17.9,9.9-31.7l0.6-26.9c8.3,6.4,18.5,9.6,30.3,9.6c1.4,0,2.8,0,4.2,0
					c1.7,0,3.5,0,5.2,0c18.7,0,38.8-1,51.9-14.1c7.8-7.8,11.7-18.5,11.8-32l0-44.5C929.5,73.3,918.3,63,908.9,58.2z"/>
			</g>
			<g>
				<path class="st0" d="M915.1,53.6L915.1,53.6c-10.7-5.4-23-8.2-36.7-8.2c-0.1,0-0.1,0-0.2,0c-18.4,0-32.7,4.5-42.6,13.3
					c0-0.4,0-0.7,0.1-1.1c0.2-7.9-2.8-15.4-8.4-20.9c-5.6-5.6-13.1-8.6-21.1-8.4h0c-15.9,0.3-29.1,13.3-29.6,29.1
					c-2-1.5-4-2.7-5.9-3.7c-10.7-5.4-23-8.2-36.7-8.2c-0.1,0-0.1,0-0.2,0c-21.9,0-37.9,6.3-47.8,18.7c-1.3,1.7-2.5,3.5-3.6,5.4
					c-0.9-1.2-1.7-2.4-2.7-3.5c0,0,0,0,0,0c-10.5-12.5-25.6-18.8-43.4-18.3c-6.6,0.2-12.6,1.3-17.9,3.2l-0.1-23.5
					c0-3.5-1.4-6.8-3.9-9.2c-2.5-2.4-5.9-3.7-9.3-3.6l-27.9,0.7c-7,0.2-12.6,6-12.6,13l0.2,38.2c-4.6-4.7-9.8-8.4-15.7-11.1
					c-8.8-4.1-18.6-6.2-29.2-6.3c-16.2-0.2-30,4.3-41.1,13.4c-1.6-3.5-4.8-6.3-8.7-7.2c-10.6-2.6-20.1-1.6-27.9,1.1
					c-2.1-4.4-6.5-7.5-11.7-7.5h-27.3c-3.4,0-6.7,1.4-9.1,3.8c-2.4,2.4-3.8,5.7-3.8,9.2l0,11.2c-4-10.3-11.2-16.2-17.6-19.4
					c-10.7-5.4-23-8.2-36.7-8.2c-21.7,0-37.7,6.1-47.6,18.3V28.3c0-7.1-5.8-12.9-12.9-12.9H246c-7.1,0-12.9,5.8-12.9,12.9V166
					c0,7.1,5.8,12.9,12.9,12.9h29.4c5.8,0,10.7-3.8,12.3-9.1c0.1,0.1,0.1,0.1,0.2,0.2c8.6,7.4,19.4,11.2,32.2,11.2
					c1.4,0,2.8,0,4.2,0c1.7,0,3.5,0,5.2,0c18.7,0,38.8-1,51.9-14.1c4-4,7-8.8,9-14.4l0,13.6c0,7.1,5.8,12.9,12.9,12.9h21.9
					c-0.2,0.6-0.4,1.1-0.5,1.7c-1.8,0.3-3.5,0.9-5.1,1.8c-0.5,0.3-1.1,0.6-1.5,0.9c-0.7-0.5-1.4-0.9-2.2-1.3c-2.4-1.2-5.1-1.8-8-1.8
					c-5,0-9.7,1.9-13.2,5.4c-3.5,3.5-5.4,8.2-5.4,13.2c0,1.9,0.3,3.8,0.8,5.5c0.3,0.9,0.6,1.8,0.9,2.8c0,0,0,0.1,0.1,0.1l7.3,18.8
					c0.6,1.6,1.2,3,2,4.3c1.2,2.1,2.7,3.9,4.5,5.4c2,1.6,4.3,2.8,7,3.4c1.8,0.4,3.8,0.7,6.1,0.7c2.6,0,4.9-0.3,6.9-0.9
					c2.4-0.7,4.5-1.7,6.3-3c0.6,0.5,1.2,0.9,1.8,1.3c3,1.9,6.4,2.8,10.1,2.8c0.9,0,1.8-0.1,3-0.2c1.4-0.2,2.8-0.6,4.3-1.2
					c0.5-0.2,1.1-0.5,1.6-0.8c0.6,0.3,1.2,0.6,1.8,0.9c2.3,0.9,4.6,1.4,7.1,1.4c4,0,7.9-1.3,11.1-3.6c2-1.5,3.7-3.4,5-5.6
					c1,1.4,2.2,2.6,3.6,3.8c2.4,1.9,5.3,3.4,8.7,4.3c1.6,0.4,3.1,0.7,4.7,0.8c1.1,0.1,2.3,0.1,3.5,0.1c0.7,0,1.4,0,2.6-0.1
					c2.1-0.2,4.2-0.7,6.2-1.6c0.4-0.2,0.8-0.4,1.2-0.6c1.1,0.5,2.2,1,3.4,1.4c2.6,0.8,5.2,1.2,7.6,1.2c2.2,0,4.3-0.3,6.4-0.9
					c0.7-0.2,1.3-0.4,1.9-0.6c0.3,0.1,0.5,0.2,0.8,0.3c4.5,1.7,9.7,1.5,14.6-0.9c0.2-0.1,0.3-0.2,0.5-0.3c2.9,1.4,6.6,2.4,11.3,2.4
					c2.7,0,5-0.2,7.2-0.8c0.8-0.2,1.5-0.4,2.2-0.6c2.1,0.8,4.4,1.2,6.8,1.2c3.2,0,6.1-0.7,8.7-2c0.6,0.3,1.2,0.6,1.8,0.8
					c2.1,0.8,4.3,1.2,6.7,1.2c2.2,0,4.5-0.4,6.8-1.2c1.2-0.4,2.4-1,3.5-1.8c4.6,4.2,10.7,6.9,17.4,6.9c7.8,0,14.9-3.6,19.6-9.1
					c2.8,2.1,5.9,3.6,9.2,4.5c3.1,0.8,6.4,1.3,9.6,1.3c3.8,0,7.3-0.5,10.5-1.5c2.5-0.8,4.9-1.9,6.9-3.2c0.8,0.5,1.5,1,2.4,1.4
					c1.9,1,4.1,1.8,6.6,2.4c2.5,0.6,5.2,0.9,8.2,0.9c3.8,0,7.5-0.6,11-1.7c2-0.7,3.9-1.5,5.7-2.6c1.3,0.9,2.6,1.7,4.1,2.3
					c5.2,2.1,10.9,1.8,15.8-0.8c0.4-0.2,0.9-0.5,1.3-0.8c1.2,0.8,2.5,1.4,3.9,1.9c2,0.7,4.1,1.1,6.2,1.1c2.6,0,5.1-0.5,7.5-1.5
					c0.9-0.4,1.7-0.8,2.5-1.3c2.9,1.9,6.3,2.8,9.8,2.8c2.9,0,5.8-0.7,8.5-2c0.8-0.4,1.5-0.8,2.2-1.3c0.5,0.7,1,1.3,1.6,1.9
					c2.5,2.5,5.9,3.9,9.4,3.8c2.2,0,3.9,0,5.4,0.1c0.2,0,0.5,0,0.7,0c0.7,0,1.4,0,1.9,0c0.5,0,0.9,0,1.3,0c0.2,0,0.3,0,0.5,0
					c16.3-0.3,27.6-4.5,34.5-12.7c6.4-7.6,9.6-17.9,9.9-31.7l0.6-26.9c8.3,6.4,18.5,9.6,30.3,9.6c1.4,0,2.8,0,4.2,0
					c1.7,0,3.5,0,5.2,0c18.7,0,38.8-1,51.9-14.1c7.8-7.8,11.7-18.5,11.8-32l0-44.5C935.7,68.7,924.5,58.3,915.1,53.6z"/>
			</g>
		</g>
		<g>
			<g class="st3">
				<path class="st4" d="M557.2,185.6c-0.1,0-0.2-0.1-0.2-0.1l0.2,0C557.2,185.5,557.2,185.5,557.2,185.6z"/>
			</g>
			<g>
				<path class="st9" d="M630,146.6c7.2-0.2,12.8-3.1,16.8-8.8c3.9-5.7,5.9-13.1,5.8-22.3c0-7.3-1-13.3-3-18
					c-3.8-9-10.7-13.4-20.7-13.1c-10.2,0.3-17.1,4.9-20.9,13.9c-2,4.8-2.9,10.9-2.8,18.4c0.1,8.9,2.1,16.1,6.2,21.8
					C615.5,144.1,621.6,146.8,630,146.6 M636.6,60.5c14.1-0.4,25.2,4.3,33.3,13.8c8,9.6,12,22.2,12.1,37.5
					c0.1,16-3.7,29.4-11.5,40.1c-7.8,10.8-18.7,16.3-32.9,16.6c-8.9,0.2-16-1.2-21.4-4.5c-3.2-2-6.7-5.4-10.4-10.4l0.1,13l-27.5,0.7
					l-0.9-139.2l27.9-0.7l0.3,49.6c3.6-4.8,7.4-8.6,11.7-11.2C622.4,62.4,628.8,60.7,636.6,60.5 M519.5,84.3
					c-6.5-0.1-11.6,1.8-15.1,5.7c-3.6,3.9-5.9,9.2-6.8,15.9l43.5,0.5c-0.4-7.1-2.6-12.6-6.6-16.3C530.4,86.3,525.4,84.4,519.5,84.3
					 M519.7,62c8.8,0.1,16.8,1.8,23.9,5.1c7.1,3.3,13,8.5,17.5,15.5c4.2,6.2,6.8,13.4,8,21.5c0.7,4.8,0.9,11.6,0.7,20.5l-73.2-0.8
					c0.3,10.4,3.7,17.7,10,22c3.8,2.6,8.4,4,13.8,4c5.8,0.1,10.4-1.5,14.1-4.6c2-1.7,3.7-4,5.3-7.1l28.5,0.3
					c-0.8,6.2-4.1,12.4-10.1,18.7c-9.2,9.9-22,14.8-38.5,14.7c-13.7-0.1-25.6-4.4-35.9-13.1c-10.3-8.6-15.4-22.4-15.2-41.5
					c0.1-18,5-31.6,14.4-41.1C492.4,66.4,504.7,61.8,519.7,62 M751.4,115.7c-1.9,1-3.7,1.8-5.4,2.3c-1.8,0.6-4.4,1-7.5,1.4l-6.3,0.8
					c-5.8,0.7-10.1,1.6-12.7,2.9c-4.4,2.2-6.8,6-7.1,11.2c-0.3,4.7,0.8,8.1,3.3,10.3c2.5,2.2,5.7,3.5,9.4,3.7
					c6,0.4,11.5-1.1,16.7-4.2c5.3-3.1,8.5-9.2,9-18.3L751.4,115.7z M733.9,101.7c5.1-0.7,8.8-1.5,10.9-2.4c4-1.7,6-4.2,6-7.7
					c0-4.3-1.5-7.3-4.6-8.8c-3-1.7-7.4-2.5-13.2-2.5c-6.6,0-11.2,1.6-13.9,4.8c-1.9,2.3-3.2,5.5-3.9,9.5l-26.7,0
					c0.6-9.1,3.2-16.6,7.8-22.4c7.3-9.2,19.9-13.8,37.7-13.8c11.6,0,21.9,2.3,30.9,6.8c9.1,4.6,13.5,13.2,13.5,25.7l0,44.4
					c0,35.2-32.8,33.1-60.1,33.1c-9.7,0-17.5-2.7-23.8-8.1c-6.3-5.4-9.4-13-9.4-22.9c0-12.8,5-22.1,15-27.8
					c5.5-3.1,13.6-5.4,24.3-6.7L733.9,101.7z M806.5,41.1c9.2-0.2,16.5,7.1,16.3,16.2c-0.2,9.1-7.8,16.7-17,16.9
					c-9.2,0.2-16.5-7.1-16.3-16.2C789.7,48.9,797.3,41.3,806.5,41.1 M777.8,207.9c1.5,0.1,2.6,0.1,3.3,0.2c0.7,0,1.2,0,1.8,0
					c2.7-0.1,4.8-0.8,6.2-2.1c1.4-1.3,2.2-3.9,2.3-7.7l2.5-115.1l27.6-0.6l-2.5,115.6c-0.2,10.6-2.5,18.5-6.9,23.7
					c-4.3,5.1-12.6,7.8-24.9,8.1c-0.8,0-2.1-0.1-3.7,0c-1.7-0.1-3.7-0.1-6.1-0.1L777.8,207.9z M353.4,115.7c-1.9,1-3.7,1.8-5.4,2.3
					c-1.8,0.6-4.4,1-7.5,1.4l-6.3,0.8c-5.8,0.7-10.1,1.6-12.8,2.9c-4.4,2.2-6.8,6-7.1,11.2c-0.3,4.7,0.8,8.1,3.3,10.3
					c2.5,2.2,5.7,3.5,9.4,3.7c6,0.4,11.5-1.1,16.7-4.2c5.3-3.1,8.4-9.2,9-18.3L353.4,115.7z M335.8,101.7c5.1-0.7,8.8-1.5,11-2.4
					c4-1.7,6-4.2,6-7.7c0-4.3-1.5-7.3-4.6-8.8c-3-1.7-7.4-2.5-13.2-2.5c-6.6,0-11.2,1.6-13.9,4.8c-1.9,2.3-3.2,5.5-3.9,9.5l-26.7,0
					c0.6-9.1,3.2-16.6,7.8-22.4c7.3-9.2,19.9-13.8,37.7-13.8c11.5,0,21.9,2.3,30.9,6.8c9.1,4.6,13.5,13.2,13.5,25.7l0,44.4
					c0,35.2-32.8,33.1-60.1,33.1c-9.7,0-17.5-2.7-23.8-8.1c-6.3-5.4-9.4-13-9.4-22.9c0-12.8,5-22.1,15-27.8
					c5.5-3.1,13.6-5.4,24.3-6.7L335.8,101.7z M246,28.3h29.4V166H246V28.3z M895.8,115.7c-1.9,1-3.7,1.8-5.4,2.3
					c-1.8,0.6-4.3,1-7.5,1.4l-6.3,0.8c-5.8,0.7-10.1,1.6-12.7,2.9c-4.4,2.2-6.8,6-7.1,11.2c-0.3,4.7,0.8,8.1,3.3,10.3
					c2.5,2.2,5.7,3.5,9.4,3.7c6,0.4,11.5-1.1,16.7-4.2c5.3-3.1,8.4-9.2,9-18.3L895.8,115.7z M878.3,101.7c5.1-0.7,8.8-1.5,11-2.4
					c4-1.7,6-4.2,6-7.7c0-4.3-1.5-7.3-4.6-8.8c-3-1.7-7.4-2.5-13.2-2.5c-6.6,0-11.1,1.6-13.9,4.8c-1.9,2.3-3.2,5.5-3.9,9.5l-26.7,0
					c0.6-9.1,3.2-16.6,7.8-22.4c7.3-9.2,19.9-13.8,37.7-13.8c11.5,0,21.9,2.3,30.9,6.8c9.1,4.6,13.5,13.2,13.5,25.7l0,44.4
					c0,35.2-32.8,33.1-60.1,33.1c-9.7,0-17.5-2.7-23.8-8.1c-6.3-5.4-9.4-13-9.4-22.9c0-12.8,5-22.1,15-27.8
					c5.5-3.1,13.6-5.4,24.3-6.7L878.3,101.7z M403.1,61.8h27.3v17.3c4.4-5.5,17.6-15.9,36.6-11.4v27c-18.5-3.1-36.4,12.3-36.6,28.7
					v42.8h-26.9L403.1,61.8z"/>
			</g>
			<g>
				<g>
					<path class="st10" d="M403.3,202.9c-0.3-0.7-0.5-1.3-0.6-1.9c-0.2-0.6-0.3-1.2-0.3-1.9c0-1.6,0.5-2.9,1.6-4
						c1.1-1.1,2.4-1.6,4-1.6c0.9,0,1.6,0.1,2.2,0.4c0.6,0.3,1.1,0.6,1.5,1c0.7,0.6,1.2,1.3,1.5,2c0.3,0.7,0.6,1.7,1,2.9
						c0.8,2.7,1.6,5.1,2.1,7.1c0.6,2,1,3.5,1.2,4.7l0.7,3.4l1.1-4.4l3.7-12.3c0.1-0.4,0.3-0.9,0.5-1.5c0.2-0.5,0.5-1.1,0.9-1.6
						c0.4-0.5,0.9-0.9,1.6-1.3c0.7-0.4,1.5-0.5,2.4-0.5c0.6,0,1.3,0.1,2,0.3c0.7,0.2,1.3,0.6,1.8,1c0.5,0.5,1,1,1.3,1.7
						c0.4,0.7,0.5,1.5,0.5,2.4c0,0.5,0,0.9-0.1,1.2c-0.1,0.4-0.2,0.8-0.3,1.2l-7.7,21c-0.3,0.6-0.5,1.2-0.8,1.8
						c-0.3,0.6-0.7,1.1-1.3,1.5c-0.6,0.4-1.3,0.8-2.2,1c-0.9,0.3-2.1,0.4-3.4,0.4c-1.2,0-2.2-0.1-3-0.3c-0.8-0.2-1.4-0.5-2-1
						c-0.5-0.4-1-1-1.4-1.7c-0.4-0.7-0.8-1.5-1.1-2.5L403.3,202.9z"/>
					<path class="st10" d="M443.2,191.2c-0.8,0-1.6-0.2-2.3-0.5s-1.4-0.7-1.9-1.3c-0.5-0.5-1-1.2-1.3-1.9c-0.3-0.7-0.5-1.5-0.5-2.4
						c0-0.8,0.2-1.6,0.5-2.3c0.3-0.7,0.7-1.4,1.3-1.9c0.5-0.5,1.2-0.9,1.9-1.3c0.7-0.3,1.5-0.5,2.3-0.5c0.8,0,1.6,0.2,2.3,0.5
						c0.7,0.3,1.4,0.7,1.9,1.3c0.5,0.5,1,1.2,1.3,1.9c0.3,0.7,0.5,1.5,0.5,2.3c0,0.8-0.2,1.6-0.5,2.4s-0.7,1.4-1.3,1.9
						c-0.5,0.5-1.2,0.9-1.9,1.3C444.8,191.1,444,191.2,443.2,191.2z M437.2,200.2c0-0.7,0.1-1.4,0.2-2c0.1-0.7,0.4-1.4,1-2.2
						c0.3-0.4,0.8-1,1.6-1.6c0.7-0.6,1.8-0.9,3.3-0.9c0.8,0,1.5,0.1,2.2,0.4s1.3,0.7,1.9,1.2c0.6,0.5,1,1.3,1.4,2.1
						c0.3,0.9,0.5,1.9,0.5,3v19.9c0,0.7,0,1.4-0.1,2.2c-0.1,0.7-0.4,1.5-0.8,2.2c-0.4,0.6-0.8,1.1-1.3,1.5c-0.5,0.4-0.9,0.7-1.4,0.9
						c-0.5,0.2-0.9,0.3-1.3,0.4c-0.4,0.1-0.8,0.1-1,0.1c-1.2,0-2.3-0.3-3.2-0.9c-0.9-0.6-1.6-1.3-2.1-2.1c-0.3-0.6-0.5-1.3-0.6-1.9
						c-0.1-0.6-0.1-1.2-0.2-1.8V200.2z"/>
					<path class="st10" d="M455.1,200.5c0-0.4,0-0.8,0.1-1.3c0-0.5,0.1-1,0.3-1.5c0.1-0.5,0.4-1,0.6-1.5c0.3-0.5,0.6-1,1.1-1.5
						c0.9-0.8,2-1.2,3.3-1.2c0.4,0,0.8,0,1.2,0.1c0.4,0,0.8,0.2,1.2,0.3c0.8,0.3,1.4,0.7,1.8,1.2s0.8,1,1,1.5c0.2,0.5,0.4,1,0.4,1.5
						c0.1,0.5,0.1,0.9,0.2,1.2c0.1-0.2,0.2-0.4,0.3-0.7c0.1-0.2,0.2-0.5,0.3-0.7c0.6-1.1,1.6-2.1,2.8-3c1.2-0.9,2.7-1.4,4.5-1.4
						c1.9,0,3.2,0.5,4.1,1.6c0.9,1.1,1.3,2.4,1.3,3.9c0,0.5-0.1,1.1-0.2,1.7c-0.1,0.6-0.4,1.1-0.7,1.6c-0.3,0.5-0.8,0.9-1.4,1.3
						s-1.3,0.6-2.1,0.7c-0.1,0-0.4,0-0.7,0c-0.4,0-0.7,0-1.1,0.1s-0.8,0-1.2,0.1c-0.4,0-0.6,0-0.8,0c-1,0.1-1.8,0.4-2.4,0.9
						c-0.6,0.4-1,0.9-1.3,1.5c-0.3,0.6-0.5,1.2-0.5,1.7c-0.1,0.6-0.1,1.1-0.1,1.5v9.4c0,0.6-0.1,1.3-0.1,1.9c0,0.6-0.1,1.2-0.3,1.8
						c-0.4,1.4-1.1,2.5-2.2,3.3c-1,0.8-2.2,1.1-3.4,1.1c-0.8,0-1.5-0.1-2.2-0.4s-1.4-0.7-1.9-1.3c-0.8-0.9-1.4-1.8-1.5-2.9
						c-0.2-1-0.3-1.9-0.3-2.7V200.5z"/>
					<path class="st10" d="M486.3,190.7c0-0.8,0.1-1.7,0.3-2.6c0.2-0.9,0.6-1.8,1.3-2.6c0.3-0.3,0.8-0.7,1.4-1.2
						c0.7-0.5,1.6-0.7,2.8-0.7c0.7,0,1.4,0.1,2.1,0.4c0.7,0.3,1.3,0.6,1.8,1.1c0.5,0.5,1,1.2,1.3,2c0.3,0.8,0.5,1.8,0.5,2.8v4.1h2.5
						c1.3,0,2.3,0.4,3,1c0.7,0.7,1.1,1.6,1.1,2.9c0,1.4-0.4,2.4-1.3,3.1c-0.5,0.5-1.2,0.7-2.1,0.8c-0.8,0.1-1.9,0.1-3.3,0v13
						c0,0.5,0.1,1,0.2,1.4c0.1,0.4,0.5,0.8,1.3,0.9c0.2,0,0.6,0.1,1.2,0.1c0.6,0,1,0.1,1.2,0.2c0.6,0.2,1.2,0.7,1.8,1.4
						c0.6,0.7,0.9,1.7,0.9,2.9c0,1.4-0.3,2.4-0.9,3.1s-1.3,1.2-2.1,1.6c-0.8,0.3-1.6,0.5-2.3,0.6c-0.7,0.1-1.2,0.1-1.5,0.1
						c-0.8,0-1.7,0-2.5-0.1c-0.8-0.1-1.6-0.2-2.4-0.4c-1.6-0.4-2.9-1-3.8-1.8c-0.9-0.8-1.6-1.6-2.1-2.6c-0.4-0.9-0.7-1.9-0.8-3
						c-0.1-1-0.2-2-0.2-3c0-1,0-2.1,0-3.4c0-1.2,0-2.5,0.1-3.8s0.1-2.6,0.1-3.8c0-1.2,0.1-2.4,0.1-3.4c-1.1,0-1.8,0-2.3,0
						c-0.5,0-0.9-0.1-1.3-0.2c-0.8-0.3-1.5-0.8-1.8-1.6c-0.4-0.7-0.6-1.5-0.6-2.4c0-0.2,0-0.4,0-0.6c0-0.2,0-0.4,0.1-0.7
						c0.2-0.6,0.4-1.1,0.7-1.4c0.3-0.3,0.7-0.6,1-0.8c0.4-0.2,0.7-0.3,1.1-0.3c0.4,0,0.7-0.1,0.9-0.1h2.3V190.7z"/>
					<path class="st10" d="M507.8,201c0-0.6,0-1.2,0.1-1.9c0.1-0.7,0.3-1.4,0.6-2.1c0.3-0.8,0.7-1.4,1.2-1.9c0.5-0.5,1-0.8,1.5-1
						c0.5-0.2,1-0.4,1.5-0.4c0.5-0.1,0.8-0.1,1.1-0.1c0.1,0,0.4,0,0.7,0c0.3,0,0.7,0.1,1.2,0.3c0.4,0.2,0.9,0.4,1.4,0.7
						s0.9,0.8,1.4,1.3c0.3,0.4,0.6,0.9,0.9,1.7c0.3,0.7,0.4,2,0.4,3.8v13c0,0.5,0,0.9,0.1,1.4c0.1,0.5,0.3,1,0.7,1.4
						c0.3,0.3,0.6,0.7,1.1,0.9c0.5,0.3,1.1,0.4,1.7,0.4c1.2,0,2.2-0.4,2.9-1.3c0.6-0.7,1-1.6,1.1-2.5c0.1-1,0.2-2.3,0.2-4V201
						c0-0.7,0-1.5,0.1-2.3c0.1-0.8,0.3-1.6,0.8-2.4c0.5-0.8,1.1-1.5,2-2c0.8-0.5,1.8-0.8,3-0.8c1.2,0,2.2,0.2,2.8,0.7
						c0.7,0.5,1.1,0.8,1.4,1.1c0.9,0.9,1.4,1.8,1.6,2.8c0.2,1,0.3,1.8,0.3,2.5v20.6c0,0.5,0,0.9-0.1,1.4c-0.1,0.5-0.2,1-0.4,1.6
						c-0.5,1.3-1.3,2.1-2.3,2.6c-1,0.5-1.9,0.7-2.7,0.7c-0.7,0-1.3-0.1-1.9-0.3c-0.6-0.2-1.1-0.5-1.6-0.8c-1-0.8-1.6-1.7-1.8-2.7
						s-0.3-1.8-0.4-2.6c-0.4,1.1-0.9,2-1.6,2.8c-0.7,0.8-1.5,1.5-2.4,2c-0.9,0.5-1.8,0.9-2.8,1.2c-1,0.3-2,0.4-3,0.4
						c-1.1,0-2.4-0.2-3.7-0.6c-1.4-0.4-2.6-1.1-3.7-2.1c-0.8-0.7-1.4-1.5-1.9-2.3c-0.4-0.8-0.8-1.7-1-2.6c-0.2-0.9-0.4-1.9-0.4-2.9
						c0-1-0.1-2.1-0.1-3.2V201z"/>
					<path class="st10" d="M575.6,221.9c0,0.4,0,0.9-0.1,1.6c-0.1,0.6-0.3,1.2-0.6,1.8s-0.9,1.1-1.6,1.5c-0.7,0.4-1.7,0.6-2.9,0.6
						c-1,0-1.8-0.2-2.5-0.5c-0.7-0.3-1.2-0.7-1.6-1.2c-0.4-0.5-0.7-0.9-0.9-1.4c-0.2-0.5-0.3-0.9-0.5-1.2c-0.5,0.5-1,1-1.5,1.5
						c-0.5,0.5-1.2,1-2.1,1.5c-0.8,0.4-1.8,0.8-3,1.1c-1.2,0.3-2.6,0.4-4.2,0.4c-3.4,0-6-0.8-7.9-2.5c-1.9-1.7-2.9-4.2-2.9-7.4
						c0-1.9,0.3-3.4,1-4.6c0.7-1.2,1.5-2.2,2.5-3s2.1-1.4,3.3-1.8c1.2-0.4,2.3-0.8,3.4-1c0.3,0,0.8-0.1,1.6-0.3
						c0.8-0.2,1.6-0.3,2.5-0.5c0.9-0.2,1.7-0.3,2.5-0.5c0.8-0.1,1.3-0.3,1.7-0.3c0.4-0.1,0.9-0.3,1.5-0.5c0.6-0.3,0.9-0.8,0.9-1.7
						c0-0.7-0.3-1.3-0.9-1.9c-0.6-0.5-1.6-0.8-2.9-0.8c-1.1,0-2,0.1-2.8,0.3c-0.8,0.2-1.5,0.8-2.1,1.6c-0.1,0.2-0.3,0.4-0.4,0.6
						c-0.1,0.2-0.3,0.4-0.4,0.6c-0.3,0.5-0.9,1.1-1.6,1.6c-0.7,0.5-1.6,0.7-2.6,0.7c-0.6,0-1.3-0.1-1.9-0.3
						c-0.6-0.2-1.2-0.5-1.7-0.9c-0.5-0.4-0.9-0.9-1.2-1.4s-0.5-1.2-0.5-1.9c0-0.5,0.1-1,0.3-1.6c0.2-0.6,0.6-1.3,1.1-2
						c0.5-0.7,1.2-1.3,2.1-2c0.9-0.6,2-1.2,3.3-1.6s2.7-0.8,4-0.9c1.3-0.1,2.6-0.2,3.7-0.2c0.8,0,1.7,0,2.8,0.1
						c1.1,0.1,2.2,0.2,3.4,0.5c1.2,0.3,2.4,0.6,3.5,1.1c1.2,0.5,2.2,1.2,3.1,2.1c0.9,0.9,1.6,2,2.2,3.4s0.9,3,0.9,4.9V221.9z
						 M564.5,211.7c-0.8,0.3-1.4,0.5-1.9,0.7c-0.5,0.2-0.9,0.3-1.4,0.5c-0.4,0.1-0.9,0.3-1.3,0.4s-1,0.3-1.6,0.4
						c-0.3,0.1-0.7,0.2-1.1,0.3c-0.4,0.1-0.8,0.3-1.1,0.5c-0.4,0.2-0.7,0.5-0.9,0.9c-0.3,0.3-0.4,0.8-0.4,1.3c0,0.1,0,0.3,0.1,0.6
						s0.2,0.6,0.4,0.9c0.2,0.3,0.5,0.6,1,0.8c0.5,0.2,1.1,0.3,2,0.3c1.5,0,2.7-0.3,3.7-0.9c1-0.6,1.9-1.2,2.6-1.8V211.7z"/>
					<path class="st10" d="M581.6,188.5c0-0.8,0.1-1.6,0.3-2.6c0.2-0.9,0.7-1.9,1.5-2.8c0.5-0.5,1.1-0.9,1.9-1.3s1.5-0.5,2.4-0.5
						c1.1,0,2,0.2,2.8,0.7c0.8,0.5,1.4,1,1.9,1.7c0.6,0.8,0.9,1.6,1,2.4c0.1,0.8,0.2,1.5,0.2,2.2v32c0,0.8-0.1,1.5-0.2,2.2
						c-0.1,0.7-0.4,1.5-1,2.3c-0.7,1-1.5,1.7-2.3,2s-1.7,0.5-2.5,0.5c-0.8,0-1.5-0.1-2.1-0.3c-0.6-0.2-1.1-0.5-1.6-0.9
						c-1.1-0.9-1.8-1.9-2-3c-0.2-1.1-0.3-2-0.3-2.8V188.5z"/>
					<path class="st10" d="M636.1,210.9c0-2.8,0.3-5.1,1-7.1c0.7-1.9,1.5-3.5,2.4-4.6c0.5-0.7,1.2-1.4,2.1-2.1
						c0.9-0.7,1.9-1.4,3.1-2c1.2-0.6,2.6-1.1,4.1-1.5c1.5-0.4,3.2-0.6,5.1-0.6c2.2,0,4.3,0.3,6.1,0.8c1.8,0.5,3.4,1.3,4.6,2.2
						c1.3,0.9,2.2,1.9,2.9,3.1c0.7,1.1,1,2.3,1,3.5c0,1.5-0.5,2.7-1.4,3.7c-0.9,1-2.3,1.5-4,1.5c-0.6,0-1.1-0.1-1.6-0.3
						c-0.4-0.2-0.8-0.4-1.1-0.6c-0.3-0.2-0.5-0.4-0.7-0.6c-0.2-0.2-0.3-0.4-0.3-0.4c-0.2-0.3-0.4-0.6-0.5-0.9
						c-0.1-0.3-0.3-0.6-0.5-0.9c-0.1-0.1-0.2-0.3-0.4-0.6c-0.2-0.3-0.4-0.5-0.8-0.8c-0.3-0.3-0.8-0.5-1.3-0.7
						c-0.5-0.2-1.2-0.3-2-0.3c-1.4,0-2.4,0.3-3.2,0.9c-0.8,0.6-1.4,1.3-1.9,2.2c-0.4,0.9-0.7,1.9-0.9,2.9c-0.1,1.1-0.2,2-0.2,3
						c0,0.3,0,0.7,0,1.1c0,0.4,0.1,0.9,0.1,1.4c0.1,0.5,0.2,1,0.3,1.6c0.1,0.5,0.3,1.1,0.5,1.6c0.6,1.3,1.3,2.1,2.2,2.5
						c0.9,0.4,1.8,0.6,2.7,0.6c1.5,0,2.6-0.3,3.3-0.9c0.7-0.6,1.3-1.4,1.7-2.2c0.2-0.3,0.3-0.6,0.4-0.9c0.1-0.3,0.3-0.6,0.5-0.8
						c0.5-0.8,1.2-1.3,1.9-1.6c0.7-0.3,1.5-0.5,2.3-0.5c1.4,0,2.6,0.5,3.5,1.4c0.9,0.9,1.4,2.2,1.4,3.8c0,1.3-0.3,2.5-1,3.8
						c-0.7,1.3-1.6,2.4-2.9,3.4c-1.3,1-2.9,1.8-4.8,2.4c-1.9,0.6-4.1,0.9-6.5,0.9c-2.2,0-4.3-0.3-6.3-0.8c-2.1-0.5-4-1.6-5.9-3.3
						c-1.3-1.1-2.2-2.2-2.9-3.4c-0.7-1.2-1.2-2.4-1.6-3.5c-0.4-1.2-0.6-2.3-0.7-3.3C636.1,212.6,636.1,211.7,636.1,210.9z"/>
					<path class="st10" d="M688.7,193.1c3.2,0,5.9,0.5,8.1,1.6c2.2,1,4,2.4,5.3,4.1c1.4,1.7,2.3,3.5,2.9,5.6s0.9,4.2,0.9,6.2
						c0,3-0.5,5.6-1.4,7.8c-0.9,2.2-2.2,4-3.7,5.4c-1.6,1.4-3.5,2.5-5.6,3.2c-2.2,0.7-4.5,1-7,1c-2,0-3.7-0.2-5.2-0.5
						c-1.5-0.4-2.7-0.8-3.7-1.3c-1-0.5-1.8-1.1-2.5-1.6s-1.2-1.1-1.6-1.6c-1.6-1.8-2.7-3.8-3.4-5.8c-0.6-2.1-0.9-4.3-0.9-6.8
						c0-3.1,0.5-5.7,1.5-7.9c1-2.2,2.3-4,4-5.3s3.5-2.3,5.7-3C684.3,193.4,686.4,193.1,688.7,193.1z M688.6,201.7
						c-1.4,0-2.5,0.4-3.2,1.1c-0.8,0.7-1.3,1.6-1.7,2.5c-0.4,0.9-0.6,1.9-0.6,2.8c-0.1,0.9-0.1,1.7-0.1,2.2s0,1.3,0.1,2.2
						c0.1,1,0.3,2,0.7,3c0.4,1,0.9,1.8,1.6,2.6c0.7,0.7,1.8,1.1,3.1,1.1c1.3,0,2.3-0.3,3-0.9c0.7-0.6,1.3-1.3,1.7-2.2
						c0.4-0.9,0.6-1.8,0.7-2.7c0.1-1,0.1-1.8,0.1-2.5c0-2.5-0.4-4.6-1.1-6.3c-0.4-0.8-0.9-1.4-1.5-2
						C690.7,202,689.8,201.7,688.6,201.7z"/>
					<path class="st10" d="M710.1,200.7c0-0.5,0-1,0.1-1.6c0.1-0.6,0.2-1.2,0.4-1.8c0.2-0.6,0.5-1.2,0.9-1.7c0.4-0.5,0.9-1,1.6-1.4
						c0.8-0.4,1.7-0.6,2.7-0.6c0.9,0,1.8,0.2,2.7,0.7c0.7,0.4,1.2,0.8,1.6,1.4c0.4,0.5,0.7,1.1,0.9,1.6c0.2,0.5,0.3,1,0.4,1.5
						c0.1,0.5,0.1,0.8,0.1,1.1c0.1-0.2,0.2-0.3,0.3-0.5c0.1-0.2,0.2-0.3,0.3-0.5c0.1-0.3,0.4-0.7,0.8-1.2c0.4-0.6,1-1.1,1.8-1.7
						c0.8-0.6,1.8-1.1,3-1.6s2.7-0.7,4.5-0.7c1.2,0,2.4,0.2,3.5,0.5c1.1,0.3,2.2,0.9,3.2,1.6c0.7,0.6,1.2,1.2,1.6,1.8
						c0.3,0.6,0.6,1.2,0.9,1.8c0.3-0.5,0.5-0.9,0.9-1.4c0.3-0.5,0.8-1,1.5-1.6c0.8-0.6,1.8-1.2,3-1.8c1.3-0.6,3-0.9,5.1-0.9
						c1.3,0,2.6,0.2,3.8,0.6c1.2,0.4,2.3,1,3.3,1.9c0.7,0.6,1.3,1.3,1.7,2.1s0.7,1.5,1,2.3c0.2,0.8,0.3,1.6,0.4,2.4
						c0,0.8,0.1,1.7,0.1,2.6v15.5c0,0.6-0.1,1.3-0.2,2c-0.1,0.7-0.4,1.4-0.9,2.1c-0.6,0.9-1.3,1.5-2.2,2c-0.8,0.4-1.7,0.6-2.7,0.6
						c-1.3,0-2.5-0.4-3.5-1.2c-1.1-0.9-1.8-1.8-2.1-2.8c-0.3-1-0.4-1.9-0.4-2.6v-12.9c0-0.9,0-1.5-0.1-1.8c0-0.3-0.1-0.6-0.3-0.9
						c-0.3-0.8-0.7-1.4-1.4-1.9c-0.7-0.4-1.4-0.7-2.2-0.7c-1.2,0-2.2,0.4-2.9,1.2c-0.6,0.6-0.9,1.3-1.1,2.1s-0.2,1.6-0.2,2.5v12.2
						c0,0.9-0.1,1.8-0.3,2.7c-0.2,0.9-0.7,1.8-1.5,2.6c-0.5,0.5-1,0.8-1.7,1.1c-0.7,0.3-1.4,0.4-2.3,0.4c-0.7,0-1.3-0.1-1.9-0.3
						c-0.6-0.2-1.1-0.5-1.6-0.8c-0.7-0.5-1.2-1.1-1.5-1.7c-0.4-0.6-0.6-1.2-0.8-1.9c-0.2-0.6-0.3-1.2-0.3-1.8c0-0.6,0-1.1,0-1.6
						v-11.8c0-0.4,0-0.9-0.1-1.4c-0.1-0.6-0.2-1.1-0.5-1.6c-0.3-0.5-0.7-0.9-1.2-1.3c-0.5-0.4-1.2-0.5-2.1-0.5
						c-0.9,0-1.6,0.2-2.2,0.6c-0.5,0.3-0.8,0.7-1.1,1.1c-0.3,0.4-0.5,0.8-0.6,1.2c-0.1,0.4-0.2,0.8-0.3,1.2c0,0.4-0.1,0.8-0.1,1
						v12.8c0,0.7-0.1,1.4-0.2,2.1c-0.1,0.7-0.5,1.4-1,2.1c-0.6,0.8-1.3,1.4-2.1,1.9c-0.8,0.4-1.7,0.7-2.6,0.7
						c-0.7,0-1.4-0.1-2.2-0.4c-0.7-0.3-1.4-0.7-1.9-1.2c-0.9-0.9-1.4-1.8-1.6-2.8c-0.2-1-0.3-1.9-0.3-2.6V200.7z"/>
				</g>
				<circle class="st6" cx="615.2" cy="218.7" r="12.6"/>
			</g>
		</g>
	</g>
</g>
</svg>
