<?xml version="1.0" encoding="utf-8"?>
<!-- Generator: Adobe Illustrator 25.0.1, SVG Export Plug-In . SVG Version: 6.00 Build 0)  -->
<svg version="1.1" id="Capa_1" xmlns="http://www.w3.org/2000/svg" xmlns:xlink="http://www.w3.org/1999/xlink" x="0px" y="0px"
	 viewBox="0 0 1054.7 285.4" style="enable-background:new 0 0 1054.7 285.4;" xml:space="preserve">
<style type="text/css">
	.st0{fill:#FFFFFF;}
	.st1{fill:none;stroke:#FFFFFF;stroke-width:37.4133;stroke-linecap:round;stroke-linejoin:round;stroke-miterlimit:10;}
	.st2{fill:#0496CF;}
	.st3{fill:#E9E8CC;}
	.st4{fill:#F3966C;}
	.st5{fill:#181510;}
	.st6{fill:#D21217;}
	.st7{fill:#020203;}
	.st8{fill:#241F1A;}
	.st9{clip-path:url(#SVGID_3_);}
	.st10{clip-path:url(#SVGID_4_);fill:#F3966C;}
	.st11{fill-rule:evenodd;clip-rule:evenodd;fill:#F3976C;}
	.st12{fill-rule:evenodd;clip-rule:evenodd;fill:#0B9EA2;}
	.st13{fill-rule:evenodd;clip-rule:evenodd;fill:#91D0D6;}
	.st14{fill-rule:evenodd;clip-rule:evenodd;fill:#EC623E;}
	.st15{fill-rule:evenodd;clip-rule:evenodd;fill:#FFFFFF;}
	.st16{fill-rule:evenodd;clip-rule:evenodd;fill:#EC623C;}
	.st17{fill-rule:evenodd;clip-rule:evenodd;fill:#4C3550;}
	.st18{fill-rule:evenodd;clip-rule:evenodd;fill:#EE7173;}
	.st19{fill-rule:evenodd;clip-rule:evenodd;fill:#181510;}
	.st20{fill-rule:evenodd;clip-rule:evenodd;fill:#B75639;}
	.st21{fill-rule:evenodd;clip-rule:evenodd;fill:#F3966C;}
	.st22{fill:#CC1517;}
	.st23{fill:#4ABAC0;}
	.st24{fill:#A5ADCB;}
	.st25{fill-rule:evenodd;clip-rule:evenodd;fill:#F5B9B6;}
	.st26{fill:#A4AECE;}
	.st27{fill:#492C87;}
	.st28{fill:#C76096;}
	.st29{fill:#4D92C3;}
	.st30{fill:#EA7C8B;}
	.st31{fill:#FFFDF8;}
	.st32{fill-rule:evenodd;clip-rule:evenodd;fill:#A4AECE;}
	.st33{fill:#D3C8B0;}
	.st34{fill:none;}
	.st35{fill:#F1F0EB;}
	.st36{clip-path:url(#SVGID_7_);}
	.st37{clip-path:url(#SVGID_8_);fill:#F3966C;}
	.st38{fill:#D0CCD5;}
	.st39{fill-rule:evenodd;clip-rule:evenodd;fill:#E5B054;}
	.st40{fill-rule:evenodd;clip-rule:evenodd;fill:#C2AF6C;}
	.st41{fill-rule:evenodd;clip-rule:evenodd;fill:#6674B6;}
	.st42{fill-rule:evenodd;clip-rule:evenodd;fill:#501F18;}
	.st43{fill-rule:evenodd;clip-rule:evenodd;fill:#38231F;}
	.st44{fill-rule:evenodd;clip-rule:evenodd;fill:#EE9568;}
	.st45{fill-rule:evenodd;clip-rule:evenodd;fill:#FCFCFC;}
	.st46{fill-rule:evenodd;clip-rule:evenodd;fill:#D0CCD5;}
	.st47{fill-rule:evenodd;clip-rule:evenodd;fill:#F6E400;}
	.st48{fill-rule:evenodd;clip-rule:evenodd;fill:#503856;}
	.st49{fill-rule:evenodd;clip-rule:evenodd;fill:#E53C54;}
	.st50{fill-rule:evenodd;clip-rule:evenodd;fill:#E9655E;}
	.st51{fill-rule:evenodd;clip-rule:evenodd;fill:#754841;}
	.st52{fill-rule:evenodd;clip-rule:evenodd;fill:#744741;}
	.st53{fill-rule:evenodd;clip-rule:evenodd;fill:#DED7BD;}
	.st54{fill-rule:evenodd;clip-rule:evenodd;fill:#FBEBD8;}
	.st55{fill-rule:evenodd;clip-rule:evenodd;fill:#3E2B27;}
	.st56{fill-rule:evenodd;clip-rule:evenodd;fill:#1C1713;}
	.st57{fill:#1C1713;}
	.st58{fill:#EE9568;}
	.st59{fill:#E6302F;}
	.st60{fill:#12100B;}
	.st61{fill:none;stroke:#181510;stroke-width:3;stroke-linecap:round;stroke-linejoin:round;stroke-miterlimit:10;}
	.st62{fill-rule:evenodd;clip-rule:evenodd;fill:#DC0D15;}
</style>
<g>
	<path class="st62" d="M81.7,218c0-32.2-12.3-50.1-34.2-50.1c-21.9,0-34.7,18-34.7,49.9c0,32,12.7,50.2,34.6,50.2
		C68.5,268.1,81.7,251.1,81.7,218L81.7,218z M63.4,218.9c0,22.5-4.6,31.5-15.6,31.5c-10.8,0-16.8-9.9-16.8-32.5
		c0-22.5,6-32.2,16.3-32.2C58,185.6,63.4,195.1,63.4,218.9L63.4,218.9z M135.7,169.4h-14.6l-30.3,22.7l6.1,18.4l21-16.1V249H94.9
		v17.7h61.9L161,249h-25.3V169.4L135.7,169.4z M261.6,194.3c0-13.8-11.5-26.3-30.8-26.3c-19.9,0-34.1,11.1-34.1,29.2
		c0,8.1,3.4,16,11,21.6c-8.3,5.5-12.7,12.4-12.7,21.3c0,17.3,14.3,28.1,34.4,28.1c21.3,0,35.1-12.5,35.1-31.7c0-9.4-4-17-13.3-22
		C258.1,208.8,261.6,202.2,261.6,194.3L261.6,194.3z M223.8,225.6l9.6,2c9.2,1.9,12.7,4.9,12.7,10.9c0,7.1-5.4,12.4-15.8,12.4
		c-11,0-17.4-6-17.4-13.8c0-5.3,2.9-9.2,7.3-12.4C221.4,225.2,222.6,225.4,223.8,225.6L223.8,225.6L223.8,225.6z M236.4,209.4
		l-11.8-2.4c-7.1-1.4-10.2-5-10.2-10.7c0-7.1,6.5-11.7,15.4-11.7c9.3,0,14.6,5.9,14.6,12.2c0,4.8-1.6,8.9-6.5,12.8L236.4,209.4
		L236.4,209.4z M341.3,218c0-32.2-12.3-50.1-34.2-50.1c-21.9,0-34.7,18-34.7,49.9c0,32,12.7,50.2,34.6,50.2
		C328.1,268.1,341.3,251.1,341.3,218L341.3,218z M323,218.9c0,22.5-4.6,31.5-15.6,31.5c-10.8,0-16.8-9.9-16.8-32.5
		c0-22.5,6-32.2,16.3-32.2C317.6,185.6,323,195.1,323,218.9L323,218.9z M418.5,218c0-32.2-12.3-50.1-34.2-50.1
		c-21.9,0-34.7,18-34.7,49.9c0,32,12.7,50.2,34.6,50.2C405.3,268.1,418.5,251.1,418.5,218L418.5,218z M400.2,218.9
		c0,22.5-4.6,31.5-15.6,31.5c-10.8,0-16.8-9.9-16.8-32.5c0-22.5,6-32.2,16.3-32.2C394.8,185.6,400.2,195.1,400.2,218.9L400.2,218.9z
		 M495.7,218c0-32.2-12.3-50.1-34.2-50.1c-21.9,0-34.7,18-34.7,49.9c0,32,12.7,50.2,34.6,50.2C482.5,268.1,495.7,251.1,495.7,218
		L495.7,218z M477.3,218.9c0,22.5-4.6,31.5-15.6,31.5c-10.8,0-16.8-9.9-16.8-32.5c0-22.5,6-32.2,16.3-32.2
		C472,185.6,477.3,195.1,477.3,218.9L477.3,218.9z M603.7,226.8h-13.4v-57.4h-19.4l-40.3,62.5v12.7h42.1v22.2h17.7v-22.2h9.2
		L603.7,226.8L603.7,226.8z M552.1,226.8l20.5-31.8v31.8H552.1L552.1,226.8z M676.4,249h-46.7c0-2.4,0.5-4.3,1.5-6
		c2-3.5,5-5.8,17.1-11.7c17.7-8.6,25.9-15.7,25.9-34c0-20.4-13.3-29.4-30.3-29.4c-10.6,0-21.9,2.9-30.1,7.1l2.7,16.7
		c6-3.3,16.2-6,24.2-6c8.5,0,15.3,4.2,15.3,12.7c0,8.6-6.1,11.8-17.1,17.6c-9.8,5.2-17.1,9.4-21.3,15.5c-4.1,6-6.1,14.4-6.1,27.8
		v7.5h60.6L676.4,249L676.4,249z M748.4,193c0-15.8-11.7-25-29.5-25c-11.1,0-20.7,2.9-28.5,6.6l2.5,16.7c7.6-3.6,16.2-5.6,22.5-5.6
		c8.6,0,14.7,3.6,14.7,10.7c0,8.2-6.2,12.4-17.9,12.4h-5.1v15.8h8.3c12.1,0,17.1,3.5,17.1,11.5c0,8.8-5.9,14.4-18.7,14.4
		c-7.6,0-17.3-2-23.9-5.8l-1.9,17.6c7.6,3.7,17.6,5.9,28.1,5.9c21,0,34.9-11.5,34.9-30.9c0-11.7-5.5-19.4-15.4-22.2v-0.6
		C744.3,210.5,748.4,202,748.4,193L748.4,193z M858,194.3c0-13.8-11.5-26.3-30.8-26.3c-19.9,0-34.1,11.1-34.1,29.2
		c0,8.1,3.4,16,11,21.6c-8.3,5.5-12.7,12.4-12.7,21.3c0,17.3,14.3,28.1,34.4,28.1c21.3,0,35.1-12.5,35.1-31.7c0-9.4-4-17-13.3-22
		C854.5,208.8,858,202.2,858,194.3L858,194.3z M820.2,225.6l9.6,2c9.2,1.9,12.7,4.9,12.7,10.9c0,7.1-5.4,12.4-15.8,12.4
		c-11,0-17.4-6-17.4-13.8c0-5.3,2.9-9.2,7.3-12.4C817.8,225.2,819,225.4,820.2,225.6L820.2,225.6L820.2,225.6z M832.8,209.4
		l-11.8-2.4c-7.1-1.4-10.2-5-10.2-10.7c0-7.1,6.5-11.7,15.4-11.7c9.3,0,14.6,5.9,14.6,12.2c0,4.8-1.6,8.9-6.5,12.8L832.8,209.4
		L832.8,209.4z M930.8,193c0-15.8-11.7-25-29.5-25c-11.1,0-20.7,2.9-28.5,6.6l2.5,16.7c7.6-3.6,16.2-5.6,22.5-5.6
		c8.6,0,14.7,3.6,14.7,10.7c0,8.2-6.2,12.4-17.9,12.4h-5.1v15.8h8.3c12.1,0,17.1,3.5,17.1,11.5c0,8.8-5.9,14.4-18.7,14.4
		c-7.6,0-17.3-2-23.9-5.8l-1.9,17.6c7.6,3.7,17.6,5.9,28.1,5.9c21,0,34.9-11.5,34.9-30.9c0-11.7-5.5-19.4-15.4-22.2v-0.6
		C926.7,210.5,930.8,202,930.8,193L930.8,193z M1008,193c0-15.8-11.7-25-29.5-25c-11.1,0-20.7,2.9-28.5,6.6l2.5,16.7
		c7.6-3.6,16.2-5.6,22.5-5.6c8.6,0,14.7,3.6,14.7,10.7c0,8.2-6.2,12.4-17.9,12.4h-5.1v15.8h8.3c12.1,0,17.1,3.5,17.1,11.5
		c0,8.8-5.9,14.4-18.7,14.4c-7.6,0-17.3-2-23.9-5.8l-1.9,17.6c7.6,3.7,17.6,5.9,28.1,5.9c21,0,34.9-11.5,34.9-30.9
		c0-11.7-5.5-19.4-15.4-22.2v-0.6C1003.9,210.5,1008,202,1008,193z"/>
	<g>
		<polygon class="st62" points="14,138.2 992.4,138.2 1042,7.2 14,7.2 		"/>
		<path class="st15" d="M56.6,55.1h-8.2v43c0,7.1,3.1,10.6,10.5,10.6h21.5l2.5-7.1h-21c-3.9,0-5.2-1.4-5.2-5.5V55.1L56.6,55.1z
			 M99.8,55.1h-8.2v53.6h8.2V55.1L99.8,55.1z M88.4,45.7l2.9,4.8l17.4-8.3l-3.8-6.3L88.4,45.7L88.4,45.7z M158,55.1h-7.8v38.7
			l-30.8-38.7h-6.3v53.6h7.8V69.1l31.3,39.6h5.7V55.1L158,55.1z M204.6,108.7l2.5-7.1h-19.1c-6.2,0-8.5-0.2-8.5-5.5v-9.9h21.6
			l0.3-7.1h-22V62.2h25l2.5-7.1h-35.7v43c0,7.1,3.1,10.6,10.5,10.6H204.6L204.6,108.7z M227.5,96.2h22.9l4.9,12.4l0,0h8.8
			l-21.7-53.7h-6.7l-22,53.7h9L227.5,96.2 M238.7,67.5h0.6l8.3,21.6h-17.4L238.7,67.5L238.7,67.5z M311.5,102.5
			c-9.8,0-18.5-7.5-18.5-20.5c0-13.2,8.5-20.7,18.5-20.7S330,68.7,330,82C330,95.1,321.3,102.5,311.5,102.5L311.5,102.5z
			 M311.5,109.5c14.7,0,27-10.2,27-27.5c0-17.5-12.6-27.7-27-27.7c-14.4,0-27,10.1-27,27.7C284.5,99.3,296.8,109.5,311.5,109.5
			L311.5,109.5z M382.1,62.2l2.4-7.1h-35.1v53.6h8.2v-22H379l0.4-7.1h-21.9V62.2H382.1L382.1,62.2z M400.1,55.1h-8.2v53.6h8.2V55.1
			L400.1,55.1z M439.5,109.5c5.9,0,11.8-1.2,15.9-3.1l-0.8-7.1c-3.9,1.9-9.6,3-14.3,3c-12.7,0-20.7-8.1-20.7-20.6
			c0-12.3,7.7-20.3,20.4-20.3c4.9,0,9.9,1.2,14.4,3.3l0.8-7.3c-3.4-1.7-9.2-3.2-15.5-3.2c-18,0-28.6,11.6-28.6,27.7
			C411.1,97.4,420.8,109.5,439.5,109.5L439.5,109.5z M473.8,55.1h-8.2v53.6h8.2V55.1L473.8,55.1z M523.7,108.7h8.8l-21.7-53.7h-6.7
			l-22,53.7h9l4.9-12.4h22.9L523.7,108.7L523.7,108.7z M507.1,67.5h0.6l8.3,21.6h-17.4L507.1,67.5L507.1,67.5z M547.1,55.1h-8.2v43
			c0,7.1,3.1,10.6,10.5,10.6h21.5l2.5-7.1h-21c-3.9,0-5.2-1.4-5.2-5.5V55.1L547.1,55.1z M622.3,64.1c5.7,0,11.2,1,15,2.4l1-9.8
			c-3.9-1.4-9.4-2.4-16.2-2.4c-18.6,0-30.4,11.5-30.4,27.7c0,15.9,10.5,27.4,28.7,27.4c7.8,0,15.3-1.7,20.1-4.4V80.3l-11.3,2.9v15.5
			c-2.1,0.6-4.8,1-7.8,1c-10.7,0-18.2-6.7-18.2-17.8C603.2,70.6,611.1,64.1,622.3,64.1L622.3,64.1z M662.6,80.5V64.9h9.4
			c5.9,0,9.4,2,9.4,7.7c0,5.5-3.3,8-9.3,8H662.6L662.6,80.5z M694.1,108.7l2.7-9.7h-5.1c-1.9,0-2.9-0.6-4-2.2l-5.8-8.4
			c7.6-2.5,10.9-9.7,10.9-16.1c0-12.4-7.4-17.1-19.9-17.1h-21.6v53.6h11.3V90.3h5.2c1.8,0,2.5,0.2,3.5,1.8l8.2,11.9
			c2.3,3.3,4.3,4.7,8.2,4.7H694.1L694.1,108.7z M742.2,108.7h12l-21.5-53.6h-10.2l-22.1,53.6h12.4l4-10.5h21.3L742.2,108.7
			L742.2,108.7z M727.2,70.5h0.7l6.7,17.9h-14L727.2,70.5L727.2,70.5z M797,55.1l-2.7,9.8H779v43.8h-11.4V64.9h-16.7v-9.8H797
			L797,55.1z M826.2,109.5c14.5,0,22.7-7,22.7-21.3V55.1h-11.3v32.4c0,7.1-3.7,12.3-11.5,12.3c-7.8,0-11.6-5.2-11.6-12.3V55.1h-11.3
			v33.1C803.4,102.5,811.7,109.5,826.2,109.5L826.2,109.5z M871.8,55.1h-11.3v53.6h11.3V55.1L871.8,55.1z M925.1,55.1H879v9.8h16.7
			v43.8h11.4V64.9h15.3L925.1,55.1L925.1,55.1z M962.6,108.7l-4-10.5h-21.3l-4,10.5h-12.4L943,55.1h10.2l21.5,53.6H962.6
			L962.6,108.7z M947.7,70.5L941,88.4h14l-6.7-17.9H947.7z"/>
	</g>
</g>
</svg>
