<?xml version="1.0" encoding="utf-8"?>
<!-- Generator: Adobe Illustrator 25.0.1, SVG Export Plug-In . SVG Version: 6.00 Build 0)  -->
<svg version="1.1" id="Capa_1" xmlns="http://www.w3.org/2000/svg" xmlns:xlink="http://www.w3.org/1999/xlink" x="0px" y="0px"
	 viewBox="0 0 879.7 220" style="enable-background:new 0 0 879.7 220;" xml:space="preserve">
<style type="text/css">
	.st0{opacity:0.15;enable-background:new    ;}
	.st1{opacity:0.15;}
	.st2{fill-rule:evenodd;clip-rule:evenodd;fill:#252324;}
	.st3{fill:#FFFFFF;}
	.st4{clip-path:url(#SVGID_2_);}
	.st5{fill:#C20B31;}
	.st6{fill:#F5DB34;}
	.st7{fill-rule:evenodd;clip-rule:evenodd;fill:#C20B31;}
	.st8{fill:#505052;}
</style>
<g>
	<g>
		<path class="st0" d="M135.6,8c0,0-130.1-7.4-131,25.1c0,0-4.1,87.1-4.6,113.6c-0.5,22.4,19.8,36.7,42.1,36
			c26-0.9,105.8-7.6,105.8-7.6c20.2-28.5,28.2-126.5,28.2-126.5C176.2,26.3,158,8,135.6,8L135.6,8z"/>
		<g class="st1">
			<path class="st2" d="M550.1,205.1c-0.1-0.1-0.2-0.1-0.3-0.2h0.4C550.1,205,550.1,205,550.1,205.1z"/>
		</g>
		<g>
			<path class="st3" d="M139.9,0H43.8C21.9,0,4,17.8,4,39.8v96.1c0,21.9,17.8,39.8,39.8,39.8h96.1c21.9,0,39.8-17.8,39.8-39.8V39.7
				C179.7,17.8,161.9,0,139.9,0L139.9,0z"/>
			<g>
				<g>
					<g>
						<g>
							<defs>
								<path id="SVGID_1_" d="M149.3,164.1H34.4c-10.3,0-18.8-8.4-18.8-18.8v-115c0-10.3,8.4-18.8,18.8-18.8h114.9
									c10.3,0,18.8,8.4,18.8,18.8v114.9C168.1,155.6,159.7,164.1,149.3,164.1z"/>
							</defs>
							<clipPath id="SVGID_2_">
								<use xlink:href="#SVGID_1_"  style="overflow:visible;"/>
							</clipPath>
							<g class="st4">
								<polygon class="st5" points="203.2,-23.3 84,180 161,180 279.4,-23.3 								"/>
								<polygon class="st5" points="31.3,-23.3 -87.9,180 -10.9,180 107.5,-23.3 								"/>
								<polygon class="st6" points="117.2,-23.3 -2,180 75,180 193.4,-23.3 								"/>
							</g>
						</g>
					</g>
				</g>
			</g>
		</g>
		<g>
			<g class="st1">
				<path class="st2" d="M514,174.3c-0.1,0-0.2-0.1-0.2-0.1h0.2C514,174.2,514,174.2,514,174.3z"/>
			</g>
			<g>
				<path class="st7" d="M586.8,135.3c7.2-0.2,12.8-3.1,16.8-8.8c3.9-5.7,5.9-13.1,5.8-22.3c0-7.3-1-13.3-3-18
					c-3.8-9-10.7-13.4-20.7-13.1c-10.2,0.3-17.1,4.9-20.9,13.9c-2,4.8-2.9,10.9-2.8,18.4c0.1,8.9,2.1,16.1,6.2,21.8
					C572.3,132.8,578.4,135.5,586.8,135.3 M593.4,49.2c14.1-0.4,25.2,4.3,33.3,13.8c8,9.6,12,22.2,12.1,37.5
					c0.1,16-3.7,29.4-11.5,40.1c-7.8,10.8-18.7,16.3-32.9,16.6c-8.9,0.2-16-1.2-21.4-4.5c-3.2-2-6.7-5.4-10.4-10.4l0.1,13l-27.5,0.7
					l-0.9-139.2l27.9-0.7l0.3,49.6c3.6-4.8,7.4-8.6,11.7-11.2C579.2,51.1,585.6,49.4,593.4,49.2 M476.3,73
					c-6.5-0.1-11.6,1.8-15.1,5.7c-3.6,3.9-5.9,9.2-6.8,15.9l43.5,0.5c-0.4-7.1-2.6-12.6-6.6-16.3C487.2,75,482.2,73.1,476.3,73
					 M476.5,50.7c8.8,0.1,16.8,1.8,23.9,5.1c7.1,3.3,13,8.5,17.5,15.5c4.2,6.2,6.8,13.4,8,21.5c0.7,4.8,0.9,11.6,0.7,20.5l-73.2-0.8
					c0.3,10.4,3.7,17.7,10,22c3.8,2.6,8.4,4,13.8,4c5.8,0.1,10.4-1.5,14.1-4.6c2-1.7,3.7-4,5.3-7.1l28.5,0.3
					c-0.8,6.2-4.1,12.4-10.1,18.7c-9.2,9.9-22,14.8-38.5,14.7c-13.7-0.1-25.6-4.4-35.9-13.1c-10.3-8.6-15.4-22.4-15.2-41.5
					c0.1-18,5-31.6,14.4-41.1C449.2,55.1,461.5,50.5,476.5,50.7 M708.2,104.4c-1.9,1-3.7,1.8-5.4,2.3c-1.8,0.6-4.4,1-7.5,1.4
					l-6.3,0.8c-5.8,0.7-10.1,1.6-12.7,2.9c-4.4,2.2-6.8,6-7.1,11.2c-0.3,4.7,0.8,8.1,3.3,10.3s5.7,3.5,9.4,3.7
					c6,0.4,11.5-1.1,16.7-4.2c5.3-3.1,8.5-9.2,9-18.3L708.2,104.4z M690.7,90.4c5.1-0.7,8.8-1.5,10.9-2.4c4-1.7,6-4.2,6-7.7
					c0-4.3-1.5-7.3-4.6-8.8c-3-1.7-7.4-2.5-13.2-2.5c-6.6,0-11.2,1.6-13.9,4.8c-1.9,2.3-3.2,5.5-3.9,9.5h-26.7
					c0.6-9.1,3.2-16.6,7.8-22.4c7.3-9.2,19.9-13.8,37.7-13.8c11.6,0,21.9,2.3,30.9,6.8c9.1,4.6,13.5,13.2,13.5,25.7V124
					c0,35.2-32.8,33.1-60.1,33.1c-9.7,0-17.5-2.7-23.8-8.1c-6.3-5.4-9.4-13-9.4-22.9c0-12.8,5-22.1,15-27.8
					c5.5-3.1,13.6-5.4,24.3-6.7L690.7,90.4z M763.3,29.8c9.2-0.2,16.5,7.1,16.3,16.2s-7.8,16.7-17,16.9s-16.5-7.1-16.3-16.2
					S754.1,30,763.3,29.8 M734.6,196.6c1.5,0.1,2.6,0.1,3.3,0.2c0.7,0,1.2,0,1.8,0c2.7-0.1,4.8-0.8,6.2-2.1s2.2-3.9,2.3-7.7
					l2.5-115.1l27.6-0.6l-2.5,115.6c-0.2,10.6-2.5,18.5-6.9,23.7c-4.3,5.1-12.6,7.8-24.9,8.1c-0.8,0-2.1-0.1-3.7,0
					c-1.7-0.1-3.7-0.1-6.1-0.1L734.6,196.6z M310.2,104.4c-1.9,1-3.7,1.8-5.4,2.3c-1.8,0.6-4.4,1-7.5,1.4l-6.3,0.8
					c-5.8,0.7-10.1,1.6-12.8,2.9c-4.4,2.2-6.8,6-7.1,11.2c-0.3,4.7,0.8,8.1,3.3,10.3s5.7,3.5,9.4,3.7c6,0.4,11.5-1.1,16.7-4.2
					c5.3-3.1,8.4-9.2,9-18.3L310.2,104.4z M292.6,90.4c5.1-0.7,8.8-1.5,11-2.4c4-1.7,6-4.2,6-7.7c0-4.3-1.5-7.3-4.6-8.8
					c-3-1.7-7.4-2.5-13.2-2.5c-6.6,0-11.2,1.6-13.9,4.8c-1.9,2.3-3.2,5.5-3.9,9.5h-26.7c0.6-9.1,3.2-16.6,7.8-22.4
					c7.3-9.2,19.9-13.8,37.7-13.8c11.5,0,21.9,2.3,30.9,6.8c9.1,4.6,13.5,13.2,13.5,25.7V124c0,35.2-32.8,33.1-60.1,33.1
					c-9.7,0-17.5-2.7-23.8-8.1c-6.3-5.4-9.4-13-9.4-22.9c0-12.8,5-22.1,15-27.8c5.5-3.1,13.6-5.4,24.3-6.7L292.6,90.4z M202.8,17
					h29.4v137.7h-29.4V17z M852.6,104.4c-1.9,1-3.7,1.8-5.4,2.3c-1.8,0.6-4.3,1-7.5,1.4l-6.3,0.8c-5.8,0.7-10.1,1.6-12.7,2.9
					c-4.4,2.2-6.8,6-7.1,11.2c-0.3,4.7,0.8,8.1,3.3,10.3s5.7,3.5,9.4,3.7c6,0.4,11.5-1.1,16.7-4.2c5.3-3.1,8.4-9.2,9-18.3
					L852.6,104.4z M835.1,90.4c5.1-0.7,8.8-1.5,11-2.4c4-1.7,6-4.2,6-7.7c0-4.3-1.5-7.3-4.6-8.8c-3-1.7-7.4-2.5-13.2-2.5
					c-6.6,0-11.1,1.6-13.9,4.8c-1.9,2.3-3.2,5.5-3.9,9.5h-26.7c0.6-9.1,3.2-16.6,7.8-22.4c7.3-9.2,19.9-13.8,37.7-13.8
					c11.5,0,21.9,2.3,30.9,6.8c9.1,4.6,13.5,13.2,13.5,25.7V124c0,35.2-32.8,33.1-60.1,33.1c-9.7,0-17.5-2.7-23.8-8.1
					c-6.3-5.4-9.4-13-9.4-22.9c0-12.8,5-22.1,15-27.8c5.5-3.1,13.6-5.4,24.3-6.7L835.1,90.4z M359.9,50.5h27.3v17.3
					c4.4-5.5,17.6-15.9,36.6-11.4v27c-18.5-3.1-36.4,12.3-36.6,28.7v42.8h-26.9L359.9,50.5z"/>
			</g>
			<g>
				<g>
					<path class="st8" d="M360.1,191.6c-0.3-0.7-0.5-1.3-0.6-1.9c-0.2-0.6-0.3-1.2-0.3-1.9c0-1.6,0.5-2.9,1.6-4s2.4-1.6,4-1.6
						c0.9,0,1.6,0.1,2.2,0.4c0.6,0.3,1.1,0.6,1.5,1c0.7,0.6,1.2,1.3,1.5,2s0.6,1.7,1,2.9c0.8,2.7,1.6,5.1,2.1,7.1
						c0.6,2,1,3.5,1.2,4.7l0.7,3.4l1.1-4.4l3.7-12.3c0.1-0.4,0.3-0.9,0.5-1.5c0.2-0.5,0.5-1.1,0.9-1.6s0.9-0.9,1.6-1.3
						c0.7-0.4,1.5-0.5,2.4-0.5c0.6,0,1.3,0.1,2,0.3s1.3,0.6,1.8,1c0.5,0.5,1,1,1.3,1.7c0.4,0.7,0.5,1.5,0.5,2.4c0,0.5,0,0.9-0.1,1.2
						c-0.1,0.4-0.2,0.8-0.3,1.2l-7.7,21c-0.3,0.6-0.5,1.2-0.8,1.8s-0.7,1.1-1.3,1.5c-0.6,0.4-1.3,0.8-2.2,1
						c-0.9,0.3-2.1,0.4-3.4,0.4c-1.2,0-2.2-0.1-3-0.3s-1.4-0.5-2-1c-0.5-0.4-1-1-1.4-1.7s-0.8-1.5-1.1-2.5L360.1,191.6z"/>
					<path class="st8" d="M400,179.9c-0.8,0-1.6-0.2-2.3-0.5s-1.4-0.7-1.9-1.3c-0.5-0.5-1-1.2-1.3-1.9s-0.5-1.5-0.5-2.4
						c0-0.8,0.2-1.6,0.5-2.3s0.7-1.4,1.3-1.9c0.5-0.5,1.2-0.9,1.9-1.3c0.7-0.3,1.5-0.5,2.3-0.5s1.6,0.2,2.3,0.5
						c0.7,0.3,1.4,0.7,1.9,1.3c0.5,0.5,1,1.2,1.3,1.9s0.5,1.5,0.5,2.3s-0.2,1.6-0.5,2.4s-0.7,1.4-1.3,1.9c-0.5,0.5-1.2,0.9-1.9,1.3
						C401.6,179.8,400.8,179.9,400,179.9z M394,188.9c0-0.7,0.1-1.4,0.2-2c0.1-0.7,0.4-1.4,1-2.2c0.3-0.4,0.8-1,1.6-1.6
						c0.7-0.6,1.8-0.9,3.3-0.9c0.8,0,1.5,0.1,2.2,0.4s1.3,0.7,1.9,1.2s1,1.3,1.4,2.1c0.3,0.9,0.5,1.9,0.5,3v19.9
						c0,0.7,0,1.4-0.1,2.2c-0.1,0.7-0.4,1.5-0.8,2.2c-0.4,0.6-0.8,1.1-1.3,1.5s-0.9,0.7-1.4,0.9s-0.9,0.3-1.3,0.4
						c-0.4,0.1-0.8,0.1-1,0.1c-1.2,0-2.3-0.3-3.2-0.9c-0.9-0.6-1.6-1.3-2.1-2.1c-0.3-0.6-0.5-1.3-0.6-1.9c-0.1-0.6-0.1-1.2-0.2-1.8
						v-20.5H394z"/>
					<path class="st8" d="M411.9,189.2c0-0.4,0-0.8,0.1-1.3c0-0.5,0.1-1,0.3-1.5c0.1-0.5,0.4-1,0.6-1.5c0.3-0.5,0.6-1,1.1-1.5
						c0.9-0.8,2-1.2,3.3-1.2c0.4,0,0.8,0,1.2,0.1c0.4,0,0.8,0.2,1.2,0.3c0.8,0.3,1.4,0.7,1.8,1.2s0.8,1,1,1.5s0.4,1,0.4,1.5
						c0.1,0.5,0.1,0.9,0.2,1.2c0.1-0.2,0.2-0.4,0.3-0.7c0.1-0.2,0.2-0.5,0.3-0.7c0.6-1.1,1.6-2.1,2.8-3c1.2-0.9,2.7-1.4,4.5-1.4
						c1.9,0,3.2,0.5,4.1,1.6s1.3,2.4,1.3,3.9c0,0.5-0.1,1.1-0.2,1.7c-0.1,0.6-0.4,1.1-0.7,1.6c-0.3,0.5-0.8,0.9-1.4,1.3
						s-1.3,0.6-2.1,0.7c-0.1,0-0.4,0-0.7,0c-0.4,0-0.7,0-1.1,0.1s-0.8,0-1.2,0.1c-0.4,0-0.6,0-0.8,0c-1,0.1-1.8,0.4-2.4,0.9
						c-0.6,0.4-1,0.9-1.3,1.5s-0.5,1.2-0.5,1.7c-0.1,0.6-0.1,1.1-0.1,1.5v9.4c0,0.6-0.1,1.3-0.1,1.9c0,0.6-0.1,1.2-0.3,1.8
						c-0.4,1.4-1.1,2.5-2.2,3.3c-1,0.8-2.2,1.1-3.4,1.1c-0.8,0-1.5-0.1-2.2-0.4s-1.4-0.7-1.9-1.3c-0.8-0.9-1.4-1.8-1.5-2.9
						c-0.2-1-0.3-1.9-0.3-2.7L411.9,189.2L411.9,189.2z"/>
					<path class="st8" d="M443.1,179.4c0-0.8,0.1-1.7,0.3-2.6c0.2-0.9,0.6-1.8,1.3-2.6c0.3-0.3,0.8-0.7,1.4-1.2
						c0.7-0.5,1.6-0.7,2.8-0.7c0.7,0,1.4,0.1,2.1,0.4c0.7,0.3,1.3,0.6,1.8,1.1s1,1.2,1.3,2s0.5,1.8,0.5,2.8v4.1h2.5
						c1.3,0,2.3,0.4,3,1c0.7,0.7,1.1,1.6,1.1,2.9c0,1.4-0.4,2.4-1.3,3.1c-0.5,0.5-1.2,0.7-2.1,0.8c-0.8,0.1-1.9,0.1-3.3,0v13
						c0,0.5,0.1,1,0.2,1.4s0.5,0.8,1.3,0.9c0.2,0,0.6,0.1,1.2,0.1s1,0.1,1.2,0.2c0.6,0.2,1.2,0.7,1.8,1.4c0.6,0.7,0.9,1.7,0.9,2.9
						c0,1.4-0.3,2.4-0.9,3.1s-1.3,1.2-2.1,1.6c-0.8,0.3-1.6,0.5-2.3,0.6c-0.7,0.1-1.2,0.1-1.5,0.1c-0.8,0-1.7,0-2.5-0.1
						s-1.6-0.2-2.4-0.4c-1.6-0.4-2.9-1-3.8-1.8s-1.6-1.6-2.1-2.6c-0.4-0.9-0.7-1.9-0.8-3c-0.1-1-0.2-2-0.2-3s0-2.1,0-3.4
						c0-1.2,0-2.5,0.1-3.8s0.1-2.6,0.1-3.8s0.1-2.4,0.1-3.4c-1.1,0-1.8,0-2.3,0s-0.9-0.1-1.3-0.2c-0.8-0.3-1.5-0.8-1.8-1.6
						c-0.4-0.7-0.6-1.5-0.6-2.4c0-0.2,0-0.4,0-0.6c0-0.2,0-0.4,0.1-0.7c0.2-0.6,0.4-1.1,0.7-1.4c0.3-0.3,0.7-0.6,1-0.8
						c0.4-0.2,0.7-0.3,1.1-0.3s0.7-0.1,0.9-0.1h2.3v-3H443.1z"/>
					<path class="st8" d="M464.6,189.7c0-0.6,0-1.2,0.1-1.9s0.3-1.4,0.6-2.1c0.3-0.8,0.7-1.4,1.2-1.9s1-0.8,1.5-1s1-0.4,1.5-0.4
						c0.5-0.1,0.8-0.1,1.1-0.1c0.1,0,0.4,0,0.7,0s0.7,0.1,1.2,0.3c0.4,0.2,0.9,0.4,1.4,0.7s0.9,0.8,1.4,1.3c0.3,0.4,0.6,0.9,0.9,1.7
						c0.3,0.7,0.4,2,0.4,3.8v13c0,0.5,0,0.9,0.1,1.4s0.3,1,0.7,1.4c0.3,0.3,0.6,0.7,1.1,0.9c0.5,0.3,1.1,0.4,1.7,0.4
						c1.2,0,2.2-0.4,2.9-1.3c0.6-0.7,1-1.6,1.1-2.5c0.1-1,0.2-2.3,0.2-4v-9.7c0-0.7,0-1.5,0.1-2.3s0.3-1.6,0.8-2.4
						c0.5-0.8,1.1-1.5,2-2c0.8-0.5,1.8-0.8,3-0.8s2.2,0.2,2.8,0.7c0.7,0.5,1.1,0.8,1.4,1.1c0.9,0.9,1.4,1.8,1.6,2.8
						c0.2,1,0.3,1.8,0.3,2.5v20.6c0,0.5,0,0.9-0.1,1.4s-0.2,1-0.4,1.6c-0.5,1.3-1.3,2.1-2.3,2.6s-1.9,0.7-2.7,0.7
						c-0.7,0-1.3-0.1-1.9-0.3c-0.6-0.2-1.1-0.5-1.6-0.8c-1-0.8-1.6-1.7-1.8-2.7s-0.3-1.8-0.4-2.6c-0.4,1.1-0.9,2-1.6,2.8
						c-0.7,0.8-1.5,1.5-2.4,2s-1.8,0.9-2.8,1.2s-2,0.4-3,0.4c-1.1,0-2.4-0.2-3.7-0.6c-1.4-0.4-2.6-1.1-3.7-2.1
						c-0.8-0.7-1.4-1.5-1.9-2.3c-0.4-0.8-0.8-1.7-1-2.6c-0.2-0.9-0.4-1.9-0.4-2.9s-0.1-2.1-0.1-3.2L464.6,189.7L464.6,189.7z"/>
					<path class="st8" d="M532.4,210.6c0,0.4,0,0.9-0.1,1.6c-0.1,0.6-0.3,1.2-0.6,1.8s-0.9,1.1-1.6,1.5c-0.7,0.4-1.7,0.6-2.9,0.6
						c-1,0-1.8-0.2-2.5-0.5s-1.2-0.7-1.6-1.2c-0.4-0.5-0.7-0.9-0.9-1.4s-0.3-0.9-0.5-1.2c-0.5,0.5-1,1-1.5,1.5s-1.2,1-2.1,1.5
						c-0.8,0.4-1.8,0.8-3,1.1s-2.6,0.4-4.2,0.4c-3.4,0-6-0.8-7.9-2.5s-2.9-4.2-2.9-7.4c0-1.9,0.3-3.4,1-4.6c0.7-1.2,1.5-2.2,2.5-3
						s2.1-1.4,3.3-1.8c1.2-0.4,2.3-0.8,3.4-1c0.3,0,0.8-0.1,1.6-0.3c0.8-0.2,1.6-0.3,2.5-0.5s1.7-0.3,2.5-0.5
						c0.8-0.1,1.3-0.3,1.7-0.3c0.4-0.1,0.9-0.3,1.5-0.5c0.6-0.3,0.9-0.8,0.9-1.7c0-0.7-0.3-1.3-0.9-1.9c-0.6-0.5-1.6-0.8-2.9-0.8
						c-1.1,0-2,0.1-2.8,0.3s-1.5,0.8-2.1,1.6c-0.1,0.2-0.3,0.4-0.4,0.6c-0.1,0.2-0.3,0.4-0.4,0.6c-0.3,0.5-0.9,1.1-1.6,1.6
						c-0.7,0.5-1.6,0.7-2.6,0.7c-0.6,0-1.3-0.1-1.9-0.3c-0.6-0.2-1.2-0.5-1.7-0.9s-0.9-0.9-1.2-1.4s-0.5-1.2-0.5-1.9
						c0-0.5,0.1-1,0.3-1.6s0.6-1.3,1.1-2s1.2-1.3,2.1-2c0.9-0.6,2-1.2,3.3-1.6s2.7-0.8,4-0.9c1.3-0.1,2.6-0.2,3.7-0.2
						c0.8,0,1.7,0,2.8,0.1s2.2,0.2,3.4,0.5s2.4,0.6,3.5,1.1c1.2,0.5,2.2,1.2,3.1,2.1c0.9,0.9,1.6,2,2.2,3.4s0.9,3,0.9,4.9
						L532.4,210.6L532.4,210.6z M521.3,200.4c-0.8,0.3-1.4,0.5-1.9,0.7s-0.9,0.3-1.4,0.5c-0.4,0.1-0.9,0.3-1.3,0.4s-1,0.3-1.6,0.4
						c-0.3,0.1-0.7,0.2-1.1,0.3c-0.4,0.1-0.8,0.3-1.1,0.5c-0.4,0.2-0.7,0.5-0.9,0.9c-0.3,0.3-0.4,0.8-0.4,1.3c0,0.1,0,0.3,0.1,0.6
						s0.2,0.6,0.4,0.9c0.2,0.3,0.5,0.6,1,0.8s1.1,0.3,2,0.3c1.5,0,2.7-0.3,3.7-0.9c1-0.6,1.9-1.2,2.6-1.8L521.3,200.4L521.3,200.4z"
						/>
					<path class="st8" d="M538.4,177.2c0-0.8,0.1-1.6,0.3-2.6c0.2-0.9,0.7-1.9,1.5-2.8c0.5-0.5,1.1-0.9,1.9-1.3s1.5-0.5,2.4-0.5
						c1.1,0,2,0.2,2.8,0.7s1.4,1,1.9,1.7c0.6,0.8,0.9,1.6,1,2.4c0.1,0.8,0.2,1.5,0.2,2.2v32c0,0.8-0.1,1.5-0.2,2.2
						c-0.1,0.7-0.4,1.5-1,2.3c-0.7,1-1.5,1.7-2.3,2s-1.7,0.5-2.5,0.5s-1.5-0.1-2.1-0.3s-1.1-0.5-1.6-0.9c-1.1-0.9-1.8-1.9-2-3
						s-0.3-2-0.3-2.8L538.4,177.2L538.4,177.2z"/>
					<path class="st8" d="M592.9,199.6c0-2.8,0.3-5.1,1-7.1c0.7-1.9,1.5-3.5,2.4-4.6c0.5-0.7,1.2-1.4,2.1-2.1c0.9-0.7,1.9-1.4,3.1-2
						c1.2-0.6,2.6-1.1,4.1-1.5s3.2-0.6,5.1-0.6c2.2,0,4.3,0.3,6.1,0.8s3.4,1.3,4.6,2.2c1.3,0.9,2.2,1.9,2.9,3.1c0.7,1.1,1,2.3,1,3.5
						c0,1.5-0.5,2.7-1.4,3.7s-2.3,1.5-4,1.5c-0.6,0-1.1-0.1-1.6-0.3c-0.4-0.2-0.8-0.4-1.1-0.6c-0.3-0.2-0.5-0.4-0.7-0.6
						c-0.2-0.2-0.3-0.4-0.3-0.4c-0.2-0.3-0.4-0.6-0.5-0.9c-0.1-0.3-0.3-0.6-0.5-0.9c-0.1-0.1-0.2-0.3-0.4-0.6s-0.4-0.5-0.8-0.8
						c-0.3-0.3-0.8-0.5-1.3-0.7s-1.2-0.3-2-0.3c-1.4,0-2.4,0.3-3.2,0.9c-0.8,0.6-1.4,1.3-1.9,2.2c-0.4,0.9-0.7,1.9-0.9,2.9
						c-0.1,1.1-0.2,2-0.2,3c0,0.3,0,0.7,0,1.1c0,0.4,0.1,0.9,0.1,1.4c0.1,0.5,0.2,1,0.3,1.6c0.1,0.5,0.3,1.1,0.5,1.6
						c0.6,1.3,1.3,2.1,2.2,2.5s1.8,0.6,2.7,0.6c1.5,0,2.6-0.3,3.3-0.9c0.7-0.6,1.3-1.4,1.7-2.2c0.2-0.3,0.3-0.6,0.4-0.9
						c0.1-0.3,0.3-0.6,0.5-0.8c0.5-0.8,1.2-1.3,1.9-1.6s1.5-0.5,2.3-0.5c1.4,0,2.6,0.5,3.5,1.4s1.4,2.2,1.4,3.8c0,1.3-0.3,2.5-1,3.8
						s-1.6,2.4-2.9,3.4c-1.3,1-2.9,1.8-4.8,2.4c-1.9,0.6-4.1,0.9-6.5,0.9c-2.2,0-4.3-0.3-6.3-0.8c-2.1-0.5-4-1.6-5.9-3.3
						c-1.3-1.1-2.2-2.2-2.9-3.4s-1.2-2.4-1.6-3.5c-0.4-1.2-0.6-2.3-0.7-3.3C592.9,201.3,592.9,200.4,592.9,199.6z"/>
					<path class="st8" d="M645.5,181.8c3.2,0,5.9,0.5,8.1,1.6c2.2,1,4,2.4,5.3,4.1c1.4,1.7,2.3,3.5,2.9,5.6s0.9,4.2,0.9,6.2
						c0,3-0.5,5.6-1.4,7.8s-2.2,4-3.7,5.4c-1.6,1.4-3.5,2.5-5.6,3.2c-2.2,0.7-4.5,1-7,1c-2,0-3.7-0.2-5.2-0.5
						c-1.5-0.4-2.7-0.8-3.7-1.3s-1.8-1.1-2.5-1.6s-1.2-1.1-1.6-1.6c-1.6-1.8-2.7-3.8-3.4-5.8c-0.6-2.1-0.9-4.3-0.9-6.8
						c0-3.1,0.5-5.7,1.5-7.9s2.3-4,4-5.3s3.5-2.3,5.7-3C641.1,182.1,643.2,181.8,645.5,181.8z M645.4,190.4c-1.4,0-2.5,0.4-3.2,1.1
						c-0.8,0.7-1.3,1.6-1.7,2.5s-0.6,1.9-0.6,2.8c-0.1,0.9-0.1,1.7-0.1,2.2s0,1.3,0.1,2.2c0.1,1,0.3,2,0.7,3s0.9,1.8,1.6,2.6
						c0.7,0.7,1.8,1.1,3.1,1.1s2.3-0.3,3-0.9c0.7-0.6,1.3-1.3,1.7-2.2s0.6-1.8,0.7-2.7c0.1-1,0.1-1.8,0.1-2.5c0-2.5-0.4-4.6-1.1-6.3
						c-0.4-0.8-0.9-1.4-1.5-2C647.5,190.7,646.6,190.4,645.4,190.4z"/>
					<path class="st8" d="M666.9,189.4c0-0.5,0-1,0.1-1.6s0.2-1.2,0.4-1.8s0.5-1.2,0.9-1.7s0.9-1,1.6-1.4c0.8-0.4,1.7-0.6,2.7-0.6
						c0.9,0,1.8,0.2,2.7,0.7c0.7,0.4,1.2,0.8,1.6,1.4c0.4,0.5,0.7,1.1,0.9,1.6s0.3,1,0.4,1.5c0.1,0.5,0.1,0.8,0.1,1.1
						c0.1-0.2,0.2-0.3,0.3-0.5s0.2-0.3,0.3-0.5c0.1-0.3,0.4-0.7,0.8-1.2c0.4-0.6,1-1.1,1.8-1.7c0.8-0.6,1.8-1.1,3-1.6
						s2.7-0.7,4.5-0.7c1.2,0,2.4,0.2,3.5,0.5s2.2,0.9,3.2,1.6c0.7,0.6,1.2,1.2,1.6,1.8c0.3,0.6,0.6,1.2,0.9,1.8
						c0.3-0.5,0.5-0.9,0.9-1.4c0.3-0.5,0.8-1,1.5-1.6c0.8-0.6,1.8-1.2,3-1.8c1.3-0.6,3-0.9,5.1-0.9c1.3,0,2.6,0.2,3.8,0.6
						c1.2,0.4,2.3,1,3.3,1.9c0.7,0.6,1.3,1.3,1.7,2.1s0.7,1.5,1,2.3c0.2,0.8,0.3,1.6,0.4,2.4c0,0.8,0.1,1.7,0.1,2.6v15.5
						c0,0.6-0.1,1.3-0.2,2c-0.1,0.7-0.4,1.4-0.9,2.1c-0.6,0.9-1.3,1.5-2.2,2c-0.8,0.4-1.7,0.6-2.7,0.6c-1.3,0-2.5-0.4-3.5-1.2
						c-1.1-0.9-1.8-1.8-2.1-2.8s-0.4-1.9-0.4-2.6V197c0-0.9,0-1.5-0.1-1.8c0-0.3-0.1-0.6-0.3-0.9c-0.3-0.8-0.7-1.4-1.4-1.9
						c-0.7-0.4-1.4-0.7-2.2-0.7c-1.2,0-2.2,0.4-2.9,1.2c-0.6,0.6-0.9,1.3-1.1,2.1s-0.2,1.6-0.2,2.5v12.2c0,0.9-0.1,1.8-0.3,2.7
						s-0.7,1.8-1.5,2.6c-0.5,0.5-1,0.8-1.7,1.1s-1.4,0.4-2.3,0.4c-0.7,0-1.3-0.1-1.9-0.3c-0.6-0.2-1.1-0.5-1.6-0.8
						c-0.7-0.5-1.2-1.1-1.5-1.7c-0.4-0.6-0.6-1.2-0.8-1.9c-0.2-0.6-0.3-1.2-0.3-1.8s0-1.1,0-1.6v-11.8c0-0.4,0-0.9-0.1-1.4
						c-0.1-0.6-0.2-1.1-0.5-1.6s-0.7-0.9-1.2-1.3c-0.5-0.4-1.2-0.5-2.1-0.5c-0.9,0-1.6,0.2-2.2,0.6c-0.5,0.3-0.8,0.7-1.1,1.1
						c-0.3,0.4-0.5,0.8-0.6,1.2s-0.2,0.8-0.3,1.2c0,0.4-0.1,0.8-0.1,1v12.8c0,0.7-0.1,1.4-0.2,2.1c-0.1,0.7-0.5,1.4-1,2.1
						c-0.6,0.8-1.3,1.4-2.1,1.9c-0.8,0.4-1.7,0.7-2.6,0.7c-0.7,0-1.4-0.1-2.2-0.4c-0.7-0.3-1.4-0.7-1.9-1.2
						c-0.9-0.9-1.4-1.8-1.6-2.8c-0.2-1-0.3-1.9-0.3-2.6L666.9,189.4L666.9,189.4z"/>
				</g>
				<circle class="st5" cx="572" cy="207.4" r="12.6"/>
			</g>
		</g>
	</g>
</g>
</svg>
