<svg width="210" height="39" viewBox="0 0 210 39" fill="none" xmlns="http://www.w3.org/2000/svg">
<path d="M29.3638 39H12.664C5.70577 39 0 33.3498 0 26.4594V12.6784C0 5.65018 5.70577 0 12.664 0H29.3638C36.3221 0 42.0278 5.65018 42.0278 12.5406V26.3216C42.0278 33.3498 36.3221 39 29.3638 39Z" fill="#EF4B23"/>
<path d="M17.9523 21.636V5.09894C14.1948 5.09894 11.6898 8.68198 11.6898 12.4028V23.7032C11.6898 29.3534 16.2823 33.9011 21.9881 33.9011H25.8847C27.6938 33.9011 29.2246 32.3852 29.2246 30.5936C29.2246 28.8021 27.6938 27.2862 25.8847 27.2862H23.7972C20.5964 27.424 17.9523 24.8057 17.9523 21.636Z" fill="white"/>
<path d="M28.668 21.3604C28.9463 21.2226 29.2247 20.8092 29.503 20.5336C29.9205 19.8445 30.1988 19.0177 30.1988 17.9152C30.338 15.2968 29.503 15.9859 29.503 15.9859C29.503 15.9859 28.5288 17.0883 26.5805 16.3993C25.8847 16.1237 25.0497 16.1237 24.3539 16.1237H24.2147C21.4314 16.1237 19.2048 18.3286 19.2048 21.0848C19.2048 23.841 21.4314 26.0459 24.2147 26.0459C26.998 26.0459 29.2247 23.841 29.2247 21.0848V20.947C29.2247 21.0848 28.9463 21.2226 28.668 21.3604ZM26.7197 23.0141C26.0239 23.5654 25.1889 23.841 24.3539 23.841C23.5189 23.841 22.6839 23.5654 21.9881 23.0141C21.8489 22.8763 21.9881 22.7385 22.1272 22.7385C22.8231 22.8763 23.5189 23.0141 24.3539 23.0141C24.6322 23.0141 24.9105 23.0141 25.1889 23.0141C25.1889 23.0141 25.6064 23.0141 26.3022 22.8763C26.4414 22.8763 26.5805 22.8763 26.5805 22.7385C26.7197 22.7385 26.8588 23.0141 26.7197 23.0141Z" fill="white"/>
<path d="M56.3618 31.2827C55.2485 31.2827 54.2744 31.0071 53.5785 30.318C52.8827 29.629 52.6044 28.6643 52.6044 27.5618V3.03181C52.8827 3.03181 53.4394 2.894 53.996 2.75619C54.6918 2.61838 55.2485 2.61838 55.8052 2.61838C56.501 2.61838 56.9185 2.61838 57.4751 2.75619C57.8926 2.894 58.3101 3.03181 58.7276 3.30742C59.006 3.58304 59.2843 3.85866 59.4235 4.27209C59.5626 4.68552 59.7018 5.23675 59.7018 5.9258V25.6325H69.0258C69.165 25.9081 69.4433 26.3216 69.5825 26.8728C69.7217 27.424 69.8608 27.8375 69.8608 28.3887C69.8608 29.4912 69.5825 30.1802 69.165 30.7315C68.7475 31.1449 68.0517 31.4205 67.3559 31.4205H56.3618V31.2827Z" fill="#6D7F35"/>
<path d="M91.0139 20.8092C91.0139 22.4629 90.7356 23.9788 90.1789 25.2191C89.6223 26.4593 88.9265 27.5618 87.9523 28.5265C86.9781 29.3533 85.8648 30.0424 84.6123 30.5936C83.3599 31.0071 81.829 31.2827 80.2982 31.2827C78.6282 31.2827 77.2366 31.0071 75.9841 30.5936C74.7316 30.0424 73.6183 29.3533 72.6442 28.5265C71.67 27.5618 70.9742 26.4593 70.4175 25.2191C69.8608 23.9788 69.5825 22.4629 69.5825 20.8092C69.5825 19.1555 69.8608 17.7774 70.4175 16.5371C70.9742 15.2968 71.67 14.1943 72.6442 13.2297C73.6183 12.265 74.7316 11.576 75.9841 11.1625C77.2366 10.6113 78.7674 10.4735 80.2982 10.4735C81.9682 10.4735 83.3599 10.7491 84.6123 11.1625C85.8648 11.7138 86.9781 12.4028 87.9523 13.2297C88.9265 14.1943 89.6223 15.2968 90.1789 16.5371C90.7356 17.9152 91.0139 19.2933 91.0139 20.8092ZM76.6799 20.8092C76.6799 22.4629 76.9583 23.7032 77.6541 24.53C78.3499 25.3569 79.1849 25.9081 80.2982 25.9081C81.4115 25.9081 82.3857 25.4947 82.9424 24.53C83.499 23.7032 83.9165 22.3251 83.9165 20.8092C83.9165 19.1555 83.6382 17.9152 82.9424 17.0883C82.2465 16.2615 81.4115 15.7102 80.2982 15.7102C79.1849 15.7102 78.2107 16.1237 77.6541 17.0883C77.0974 17.9152 76.6799 19.2933 76.6799 20.8092Z" fill="#6D7F35"/>
<path d="M101.451 10.4735C103.121 10.4735 104.652 10.7491 106.044 11.1625C107.435 11.576 108.688 12.265 109.662 13.0919C110.636 13.9187 111.471 15.0212 112.028 16.3993C112.585 17.6396 112.863 19.2933 112.863 21.0848C112.863 22.8763 112.585 24.2544 112.167 25.6325C111.61 26.8728 110.915 27.9752 110.08 28.9399C109.245 29.7668 108.131 30.4558 106.879 30.8692C105.626 31.2827 104.235 31.5583 102.704 31.5583C101.59 31.5583 100.477 31.4205 99.503 31.0071V38.5866C99.2247 38.7244 98.8072 38.7244 98.2505 38.8622C97.6938 39 96.998 39 96.4414 39C95.8847 39 95.328 39 94.7714 38.8622C94.3539 38.7244 93.9364 38.5866 93.5189 38.3109C93.2406 38.0353 92.9622 37.7597 92.8231 37.3463C92.6839 36.9328 92.5447 36.3816 92.5447 35.6926V15.159C92.5447 14.4699 92.6839 13.7809 92.9622 13.3675C93.2406 12.954 93.6581 12.5406 94.2147 12.1272C95.0497 11.576 96.163 11.1625 97.4155 10.8869C98.5288 10.6113 99.9205 10.4735 101.451 10.4735ZM101.59 25.9081C104.374 25.9081 105.765 24.2544 105.765 20.947C105.765 19.1555 105.487 17.9152 104.791 17.0883C104.095 16.2615 103.121 15.848 101.73 15.848C101.173 15.848 100.755 15.848 100.338 15.9858C99.9205 16.1237 99.6422 16.2615 99.2247 16.3993V25.3569C99.503 25.4947 99.9205 25.6325 100.338 25.7703C100.755 25.7703 101.173 25.9081 101.59 25.9081Z" fill="#6D7F35"/>
<path d="M113.976 6.20141C113.976 5.23674 114.254 4.27208 114.95 3.58303C115.646 2.89399 116.62 2.48056 117.734 2.48056C118.847 2.48056 119.821 2.89399 120.517 3.58303C121.213 4.27208 121.491 5.09894 121.491 6.20141C121.491 7.16607 121.074 8.13074 120.517 8.81978C119.821 9.50883 118.847 9.92226 117.734 9.92226C116.62 9.92226 115.646 9.50883 114.95 8.81978C114.394 8.13074 113.976 7.30388 113.976 6.20141Z" fill="#6D7F35"/>
<path d="M121.352 30.8693C121.074 30.8693 120.656 31.0071 119.96 31.1449C119.404 31.2827 118.847 31.2827 118.151 31.2827C117.594 31.2827 117.038 31.2827 116.481 31.1449C116.064 31.0071 115.646 30.8693 115.229 30.5936C114.95 30.318 114.672 30.0424 114.533 29.629C114.394 29.2156 114.254 28.6643 114.254 27.9753V11.3004C114.533 11.3004 114.95 11.1626 115.646 11.0247C116.342 11.0247 116.899 10.8869 117.455 10.8869C118.012 10.8869 118.569 10.8869 119.125 11.0247C119.543 11.1626 119.96 11.3004 120.378 11.576C120.656 11.8516 120.934 12.1272 121.074 12.5406C121.213 12.9541 121.352 13.5053 121.352 14.1944V30.8693Z" fill="#6D7F35"/>
<path d="M122.883 20.8092C122.883 19.0177 123.161 17.5018 123.718 16.1237C124.274 14.8834 124.97 13.7809 125.944 12.8163C126.918 12.1272 128.032 11.4382 129.284 11.0247C130.537 10.6113 131.928 10.3357 133.459 10.3357C134.016 10.3357 134.573 10.3357 134.99 10.4735C135.547 10.6113 135.964 10.7491 136.243 10.7491V3.03181C136.521 2.894 136.938 2.894 137.495 2.75619C138.052 2.61838 138.747 2.61838 139.304 2.61838C139.861 2.61838 140.417 2.61838 140.974 2.75619C141.392 2.894 141.809 3.03181 142.227 3.30742C142.505 3.58304 142.783 3.85866 142.922 4.27209C143.062 4.68552 143.201 5.23675 143.201 5.9258V26.4594C143.201 27.6997 142.644 28.8021 141.392 29.4912C140.557 30.0424 139.582 30.4558 138.33 30.8693C137.078 31.2827 135.686 31.4205 134.016 31.4205C132.207 31.4205 130.676 31.1449 129.284 30.7315C127.893 30.1802 126.64 29.4912 125.666 28.6643C124.692 27.6996 123.996 26.5972 123.439 25.3569C123.022 23.9788 122.883 22.4629 122.883 20.8092ZM134.433 15.8481C132.903 15.8481 131.789 16.2615 131.093 17.0883C130.258 17.9152 129.841 19.1555 129.841 20.947C129.841 22.6007 130.258 23.841 130.954 24.6678C131.65 25.4947 132.763 25.9081 134.155 25.9081C134.712 25.9081 135.129 25.7703 135.547 25.6325C135.964 25.4947 136.243 25.3569 136.521 25.0813V16.1237C135.825 15.9859 135.129 15.8481 134.433 15.8481Z" fill="#6D7F35"/>
<path d="M166.163 20.8092C166.163 22.4629 165.885 23.9788 165.328 25.2191C164.771 26.4593 164.076 27.5618 163.101 28.5265C162.127 29.3533 161.014 30.0424 159.761 30.5936C158.509 31.0071 156.978 31.2827 155.447 31.2827C153.777 31.2827 152.386 31.0071 151.133 30.5936C149.881 30.0424 148.767 29.3533 147.793 28.5265C146.819 27.5618 146.123 26.4593 145.567 25.2191C145.01 23.9788 144.732 22.4629 144.732 20.8092C144.732 19.1555 145.01 17.7774 145.567 16.5371C146.123 15.2968 146.819 14.1943 147.793 13.2297C148.767 12.265 149.881 11.576 151.133 11.1625C152.386 10.6113 153.916 10.4735 155.447 10.4735C157.117 10.4735 158.509 10.7491 159.761 11.1625C161.014 11.7138 162.127 12.4028 163.101 13.2297C164.076 14.1943 164.771 15.2968 165.328 16.5371C165.885 17.9152 166.163 19.2933 166.163 20.8092ZM151.829 20.8092C151.829 22.4629 152.107 23.7032 152.803 24.53C153.499 25.3569 154.334 25.9081 155.447 25.9081C156.561 25.9081 157.535 25.4947 158.091 24.53C158.648 23.7032 159.066 22.3251 159.066 20.8092C159.066 19.1555 158.787 17.9152 158.091 17.0883C157.396 16.2615 156.561 15.7102 155.447 15.7102C154.334 15.7102 153.36 16.1237 152.803 17.0883C152.107 17.9152 151.829 19.2933 151.829 20.8092Z" fill="#6D7F35"/>
<path d="M166.581 29.2156C166.581 28.6643 166.72 28.2509 167.137 27.8375C167.416 27.424 167.972 27.2862 168.529 27.2862C169.085 27.2862 169.642 27.424 169.92 27.8375C170.338 28.2509 170.477 28.6643 170.477 29.2156C170.477 29.7668 170.338 30.1802 169.92 30.5936C169.503 31.0071 169.085 31.1449 168.529 31.1449C167.972 31.1449 167.416 31.0071 167.137 30.5936C166.72 30.1802 166.581 29.7668 166.581 29.2156Z" fill="#EF4B23"/>
<path d="M192.883 25.9081C192.883 26.735 192.744 27.424 192.465 28.1131C192.187 28.8021 191.909 29.3534 191.352 29.7668C190.934 30.1802 190.378 30.5936 189.682 30.7314C188.986 31.0071 188.29 31.0071 187.455 31.0071C186.62 31.0071 185.924 30.8693 185.229 30.5936C184.533 30.318 183.976 30.0424 183.559 29.629C183.141 29.2155 182.724 28.6643 182.445 27.9753C182.167 27.2862 182.028 26.5972 182.028 25.7703C182.028 24.9435 182.167 24.2544 182.445 23.5654C182.724 22.8763 183.002 22.3251 183.559 21.9117C183.976 21.4982 184.533 21.0848 185.229 20.947C185.924 20.6714 186.62 20.5336 187.455 20.5336C188.29 20.5336 188.986 20.6714 189.682 20.947C190.378 21.2226 190.934 21.4982 191.352 22.0495C191.769 22.4629 192.187 23.0141 192.465 23.7032C192.744 24.53 192.883 25.2191 192.883 25.9081ZM185.785 25.9081C185.785 26.735 185.924 27.2862 186.203 27.8375C186.481 28.2509 186.899 28.5265 187.455 28.5265C188.012 28.5265 188.429 28.2509 188.708 27.8375C188.986 27.424 189.125 26.735 189.125 25.9081C189.125 25.0813 188.986 24.53 188.708 24.1166C188.429 23.7032 188.012 23.4276 187.455 23.4276C186.899 23.4276 186.481 23.7032 186.203 24.1166C185.924 24.53 185.785 25.2191 185.785 25.9081Z" fill="#EF4B23"/>
<path d="M177.575 23.4276C177.296 23.4276 176.879 23.4276 176.6 23.5654C176.322 23.7032 176.044 23.841 175.765 23.9788C175.487 24.1166 175.348 24.3922 175.209 24.8057C175.07 25.0813 175.07 25.4947 175.07 25.9081C175.07 26.735 175.348 27.424 175.765 27.8375C176.183 28.2509 176.879 28.5265 177.575 28.5265C177.992 28.5265 178.27 28.5265 178.688 28.3887C178.966 28.2509 179.245 28.2509 179.523 28.1131C179.801 28.2509 179.94 28.5265 180.08 28.6643C180.219 28.9399 180.219 29.2156 180.219 29.4912C180.219 30.0424 179.94 30.4558 179.384 30.7315C178.827 31.0071 178.131 31.1449 177.157 31.1449C176.322 31.1449 175.487 31.0071 174.791 30.7315C174.095 30.4558 173.539 30.1802 172.982 29.629C172.425 29.2156 172.147 28.6643 171.869 27.9753C171.59 27.2862 171.451 26.5972 171.451 25.9081C171.451 25.0813 171.59 24.2544 171.869 23.5654C172.147 22.8763 172.565 22.3251 172.982 21.9117C173.539 21.4982 174.095 21.2226 174.652 20.947C175.348 20.6714 176.044 20.6714 176.74 20.6714C177.714 20.6714 178.41 20.8092 178.966 21.2226C179.523 21.6361 179.801 22.0495 179.801 22.6007C179.801 22.8763 179.801 23.152 179.662 23.2898C179.523 23.5654 179.384 23.7032 179.245 23.841C178.966 23.7032 178.688 23.5654 178.41 23.5654C178.27 23.5654 177.853 23.4276 177.575 23.4276Z" fill="#EF4B23"/>
<path d="M199.702 20.8092C200.258 20.8092 200.815 20.947 201.372 21.0848C201.928 21.2226 202.346 21.4982 202.763 21.7739C203.181 21.4982 203.598 21.2226 204.155 21.0848C204.712 20.947 205.268 20.8092 205.964 20.8092C206.521 20.8092 206.938 20.8092 207.495 20.947C208.052 21.0848 208.469 21.3604 208.748 21.6361C209.165 21.9117 209.443 22.3251 209.722 22.7385C210 23.152 210 23.841 210 24.5301V30.8693C209.861 30.8693 209.722 31.0071 209.304 31.0071C209.026 31.0071 208.748 31.0071 208.469 31.0071C208.191 31.0071 207.913 31.0071 207.634 31.0071C207.356 31.0071 207.217 30.8693 207.078 30.7315C206.938 30.5937 206.799 30.4558 206.66 30.1802C206.521 30.0424 206.521 29.7668 206.521 29.3534V24.5301C206.521 24.1166 206.382 23.841 206.243 23.7032C205.964 23.5654 205.686 23.4276 205.268 23.4276C205.129 23.4276 204.851 23.4276 204.712 23.5654C204.433 23.7032 204.294 23.7032 204.294 23.841V23.9788V24.1166V30.7315C204.155 30.7315 203.877 30.8693 203.598 30.8693C203.32 30.8693 203.042 30.8693 202.763 30.8693C202.485 30.8693 202.207 30.8693 201.928 30.8693C201.65 30.8693 201.511 30.7315 201.372 30.5937C201.233 30.4558 201.093 30.318 200.954 30.0424C200.815 29.9046 200.815 29.629 200.815 29.2156V24.3922C200.815 23.9788 200.676 23.7032 200.398 23.5654C200.119 23.4276 199.841 23.2898 199.563 23.2898C199.284 23.2898 199.145 23.2898 198.867 23.4276C198.728 23.5654 198.588 23.5654 198.449 23.7032V30.7315C198.31 30.7315 198.171 30.8693 197.753 30.8693C197.475 30.8693 197.197 30.8693 196.918 30.8693C196.64 30.8693 196.362 30.8693 196.083 30.8693C195.805 30.8693 195.666 30.7315 195.527 30.5937C195.388 30.4558 195.249 30.318 195.109 30.0424C194.97 29.9046 194.97 29.629 194.97 29.2156V23.152C194.97 22.7385 195.109 22.4629 195.249 22.3251C195.388 22.0495 195.666 21.9117 195.944 21.7739C196.362 21.4982 196.918 21.2226 197.614 20.947C198.31 20.947 199.006 20.8092 199.702 20.8092Z" fill="#EF4B23"/>
</svg>
