<?xml version="1.0" encoding="utf-8"?>
<!-- Generator: Adobe Illustrator 25.0.1, SVG Export Plug-In . SVG Version: 6.00 Build 0)  -->
<svg version="1.1" id="Capa_1" xmlns="http://www.w3.org/2000/svg" xmlns:xlink="http://www.w3.org/1999/xlink" x="0px" y="0px"
	 viewBox="0 0 879.7 220" style="enable-background:new 0 0 879.7 220;" xml:space="preserve">
<style type="text/css">
	.st0{fill:#EF4B23;}
	.st1{fill:#FFFFFF;}
	.st2{fill:#6D7F35;}
</style>
<path class="st0" d="M123,191.7h-70C23.9,191.7,0,168,0,139.2V81.4C0,52,23.9,28.3,53.1,28.3h70c29.1,0,53.1,23.7,53.1,52.5v57.7
	C176.1,168,152.2,191.7,123,191.7z"/>
<path class="st1" d="M75.2,118.9V49.7c-15.7,0-26.2,15-26.2,30.6v47.3c0,23.7,19.2,42.7,43.1,42.7h16.3c7.6,0,14-6.4,14-13.9
	c0-7.5-6.4-13.9-14-13.9h-8.7C86.3,143.2,75.2,132.2,75.2,118.9z"/>
<path class="st1" d="M120.1,117.8c1.2-0.6,2.3-2.3,3.5-3.5c1.7-2.9,2.9-6.4,2.9-11c0.6-11-2.9-8.1-2.9-8.1s-4.1,4.6-12.2,1.7
	c-2.9-1.2-6.4-1.2-9.3-1.2h-0.6c-11.7,0-21,9.2-21,20.8c0,11.5,9.3,20.8,21,20.8s21-9.2,21-20.8v-0.6
	C122.4,116.6,121.3,117.2,120.1,117.8z M111.9,124.7c-2.9,2.3-6.4,3.5-9.9,3.5c-3.5,0-7-1.2-9.9-3.5c-0.6-0.6,0-1.2,0.6-1.2
	c2.9,0.6,5.8,1.2,9.3,1.2c1.2,0,2.3,0,3.5,0c0,0,1.7,0,4.7-0.6c0.6,0,1.2,0,1.2-0.6C111.9,123.6,112.5,124.7,111.9,124.7z"/>
<path class="st2" d="M236.1,159.4c-4.7,0-8.7-1.2-11.7-4c-2.9-2.9-4.1-6.9-4.1-11.5V41c1.2,0,3.5-0.6,5.8-1.2
	c2.9-0.6,5.2-0.6,7.6-0.6c2.9,0,4.7,0,7,0.6c1.7,0.6,3.5,1.2,5.2,2.3c1.2,1.2,2.3,2.3,2.9,4c0.6,1.7,1.2,4,1.2,6.9v82.6h39.1
	c0.6,1.2,1.7,2.9,2.3,5.2c0.6,2.3,1.2,4,1.2,6.4c0,4.6-1.2,7.5-2.9,9.8c-1.7,1.7-4.7,2.9-7.6,2.9h-46.1V159.4z"/>
<path class="st2" d="M381.3,115.5c0,6.9-1.2,13.3-3.5,18.5c-2.3,5.2-5.2,9.8-9.3,13.9c-4.1,3.5-8.7,6.4-14,8.7
	c-5.2,1.7-11.7,2.9-18.1,2.9c-7,0-12.8-1.2-18.1-2.9c-5.2-2.3-9.9-5.2-14-8.7c-4.1-4-7-8.7-9.3-13.9c-2.3-5.2-3.5-11.5-3.5-18.5
	s1.2-12.7,3.5-17.9c2.3-5.2,5.2-9.8,9.3-13.9c4.1-4,8.7-6.9,14-8.7c5.2-2.3,11.7-2.9,18.1-2.9c7,0,12.8,1.2,18.1,2.9
	c5.2,2.3,9.9,5.2,14,8.7c4.1,4,7,8.7,9.3,13.9C380.1,103.4,381.3,109.1,381.3,115.5z M321.2,115.5c0,6.9,1.2,12.1,4.1,15.6
	c2.9,3.5,6.4,5.8,11.1,5.8c4.7,0,8.7-1.7,11.1-5.8c2.3-3.5,4.1-9.2,4.1-15.6c0-6.9-1.2-12.1-4.1-15.6c-2.9-3.5-6.4-5.8-11.1-5.8
	c-4.7,0-8.7,1.7-11.1,5.8C323,103.4,321.2,109.1,321.2,115.5z"/>
<path class="st2" d="M425,72.2c7,0,13.4,1.2,19.2,2.9c5.8,1.7,11.1,4.6,15.2,8.1c4.1,3.5,7.6,8.1,9.9,13.9
	c2.3,5.2,3.5,12.1,3.5,19.6c0,7.5-1.2,13.3-2.9,19.1c-2.3,5.2-5.2,9.8-8.7,13.9c-3.5,3.5-8.2,6.4-13.4,8.1
	c-5.2,1.7-11.1,2.9-17.5,2.9c-4.7,0-9.3-0.6-13.4-2.3V190c-1.2,0.6-2.9,0.6-5.2,1.2c-2.3,0.6-5.2,0.6-7.6,0.6c-2.3,0-4.7,0-7-0.6
	c-1.7-0.6-3.5-1.2-5.2-2.3c-1.2-1.2-2.3-2.3-2.9-4c-0.6-1.7-1.2-4-1.2-6.9v-86c0-2.9,0.6-5.8,1.7-7.5c1.2-1.7,2.9-3.5,5.2-5.2
	c3.5-2.3,8.2-4,13.4-5.2C412.7,72.8,418.6,72.2,425,72.2z M425.6,136.8c11.7,0,17.5-6.9,17.5-20.8c0-7.5-1.2-12.7-4.1-16.2
	c-2.9-3.5-7-5.2-12.8-5.2c-2.3,0-4.1,0-5.8,0.6c-1.7,0.6-2.9,1.2-4.7,1.7v37.5c1.2,0.6,2.9,1.2,4.7,1.7
	C422.1,136.3,423.8,136.8,425.6,136.8z"/>
<path class="st2" d="M477.5,54.3c0-4,1.2-8.1,4.1-11c2.9-2.9,7-4.6,11.7-4.6c4.7,0,8.7,1.7,11.7,4.6c2.9,2.9,4.1,6.4,4.1,11
	c0,4-1.7,8.1-4.1,11c-2.9,2.9-7,4.6-11.7,4.6c-4.7,0-8.7-1.7-11.7-4.6C479.2,62.4,477.5,58.9,477.5,54.3z"/>
<path class="st2" d="M508.4,157.6c-1.2,0-2.9,0.6-5.8,1.2c-2.3,0.6-4.7,0.6-7.6,0.6c-2.3,0-4.7,0-7-0.6c-1.7-0.6-3.5-1.2-5.2-2.3
	c-1.2-1.2-2.3-2.3-2.9-4s-1.2-4-1.2-6.9V75.7c1.2,0,2.9-0.6,5.8-1.2c2.9,0,5.2-0.6,7.6-0.6c2.3,0,4.7,0,7,0.6
	c1.8,0.6,3.5,1.2,5.2,2.3c1.2,1.2,2.3,2.3,2.9,4c0.6,1.7,1.2,4,1.2,6.9V157.6z"/>
<path class="st2" d="M514.8,115.5c0-7.5,1.2-13.9,3.5-19.6c2.3-5.2,5.2-9.8,9.3-13.9c4.1-2.9,8.7-5.8,14-7.5
	c5.2-1.7,11.1-2.9,17.5-2.9c2.3,0,4.7,0,6.4,0.6c2.3,0.6,4.1,1.2,5.2,1.2V41c1.2-0.6,2.9-0.6,5.2-1.2c2.3-0.6,5.2-0.6,7.6-0.6
	c2.3,0,4.7,0,7,0.6c1.8,0.6,3.5,1.2,5.2,2.3c1.2,1.2,2.3,2.3,2.9,4c0.6,1.7,1.2,4,1.2,6.9v86c0,5.2-2.3,9.8-7.6,12.7
	c-3.5,2.3-7.6,4-12.8,5.8c-5.2,1.7-11.1,2.3-18.1,2.3c-7.6,0-14-1.2-19.8-2.9c-5.8-2.3-11.1-5.2-15.2-8.7c-4.1-4-7-8.7-9.3-13.9
	C515.4,128.8,514.8,122.4,514.8,115.5z M563.2,94.7c-6.4,0-11.1,1.7-14,5.2c-3.5,3.5-5.2,8.7-5.2,16.2c0,6.9,1.7,12.1,4.7,15.6
	c2.9,3.5,7.6,5.2,13.4,5.2c2.3,0,4.1-0.6,5.8-1.2c1.7-0.6,2.9-1.2,4.1-2.3V95.9C569,95.3,566.1,94.7,563.2,94.7z"/>
<path class="st2" d="M696.1,115.5c0,6.9-1.2,13.3-3.5,18.5c-2.3,5.2-5.2,9.8-9.3,13.9c-4.1,3.5-8.7,6.4-14,8.7
	c-5.2,1.7-11.7,2.9-18.1,2.9c-7,0-12.8-1.2-18.1-2.9c-5.2-2.3-9.9-5.2-14-8.7c-4.1-4-7-8.7-9.3-13.9c-2.3-5.2-3.5-11.5-3.5-18.5
	s1.2-12.7,3.5-17.9c2.3-5.2,5.2-9.8,9.3-13.9c4.1-4,8.7-6.9,14-8.7c5.2-2.3,11.7-2.9,18.1-2.9c7,0,12.8,1.2,18.1,2.9
	c5.2,2.3,9.9,5.2,14,8.7c4.1,4,7,8.7,9.3,13.9C694.9,103.4,696.1,109.1,696.1,115.5z M636,115.5c0,6.9,1.2,12.1,4.1,15.6
	c2.9,3.5,6.4,5.8,11.1,5.8c4.7,0,8.7-1.7,11.1-5.8c2.3-3.5,4.1-9.2,4.1-15.6c0-6.9-1.2-12.1-4.1-15.6c-2.9-3.5-6.4-5.8-11.1-5.8
	c-4.7,0-8.7,1.7-11.1,5.8C637.2,103.4,636,109.1,636,115.5z"/>
<path class="st0" d="M697.8,150.7c0-2.3,0.6-4,2.3-5.8c1.2-1.7,3.5-2.3,5.8-2.3c2.3,0,4.7,0.6,5.8,2.3c1.8,1.7,2.3,3.5,2.3,5.8
	c0,2.3-0.6,4-2.3,5.8c-1.7,1.7-3.5,2.3-5.8,2.3c-2.3,0-4.7-0.6-5.8-2.3C698.4,154.7,697.8,153,697.8,150.7z"/>
<path class="st0" d="M808,136.8c0,3.5-0.6,6.4-1.8,9.2c-1.2,2.9-2.3,5.2-4.7,6.9c-1.8,1.7-4.1,3.5-7,4c-2.9,1.2-5.8,1.2-9.3,1.2
	c-3.5,0-6.4-0.6-9.3-1.7c-2.9-1.2-5.2-2.3-7-4c-1.8-1.7-3.5-4-4.7-6.9c-1.2-2.9-1.7-5.8-1.7-9.2c0-3.5,0.6-6.4,1.7-9.2
	c1.2-2.9,2.3-5.2,4.7-6.9c1.7-1.7,4.1-3.5,7-4c2.9-1.2,5.8-1.7,9.3-1.7c3.5,0,6.4,0.6,9.3,1.7c2.9,1.2,5.2,2.3,7,4.6
	c1.7,1.7,3.5,4,4.7,6.9C807.4,131.1,808,134,808,136.8z M778.3,136.8c0,3.5,0.6,5.8,1.8,8.1c1.2,1.7,2.9,2.9,5.2,2.9
	c2.3,0,4.1-1.2,5.2-2.9c1.2-1.7,1.7-4.6,1.7-8.1c0-3.5-0.6-5.8-1.7-7.5c-1.2-1.7-2.9-2.9-5.2-2.9c-2.3,0-4.1,1.2-5.2,2.9
	C778.9,131.1,778.3,134,778.3,136.8z"/>
<path class="st0" d="M743.9,126.5c-1.2,0-2.9,0-4.1,0.6c-1.2,0.6-2.3,1.2-3.5,1.7c-1.2,0.6-1.7,1.7-2.3,3.5
	c-0.6,1.2-0.6,2.9-0.6,4.6c0,3.5,1.2,6.4,2.9,8.1c1.8,1.7,4.7,2.9,7.6,2.9c1.7,0,2.9,0,4.7-0.6c1.2-0.6,2.3-0.6,3.5-1.2
	c1.2,0.6,1.7,1.7,2.3,2.3c0.6,1.2,0.6,2.3,0.6,3.5c0,2.3-1.2,4-3.5,5.2c-2.3,1.2-5.2,1.7-9.3,1.7c-3.5,0-7-0.6-9.9-1.7
	c-2.9-1.2-5.2-2.3-7.6-4.6c-2.3-1.7-3.5-4-4.7-6.9c-1.2-2.9-1.8-5.8-1.8-8.7c0-3.5,0.6-6.9,1.8-9.8c1.2-2.9,2.9-5.2,4.7-6.9
	c2.3-1.7,4.7-2.9,7-4c2.9-1.2,5.8-1.2,8.7-1.2c4.1,0,7,0.6,9.3,2.3c2.3,1.7,3.5,3.5,3.5,5.8c0,1.2,0,2.3-0.6,2.9
	c-0.6,1.2-1.2,1.7-1.7,2.3c-1.2-0.6-2.3-1.2-3.5-1.2C746.8,127,745,126.5,743.9,126.5z"/>
<path class="st0" d="M836.6,115.5c2.3,0,4.7,0.6,7,1.2c2.3,0.6,4.1,1.7,5.8,2.9c1.8-1.2,3.5-2.3,5.8-2.9c2.3-0.6,4.7-1.2,7.6-1.2
	c2.3,0,4.1,0,6.4,0.6c2.3,0.6,4.1,1.7,5.2,2.9c1.7,1.2,2.9,2.9,4.1,4.6c1.2,1.7,1.2,4.6,1.2,7.5v26.6c-0.6,0-1.2,0.6-2.9,0.6
	c-1.2,0-2.3,0-3.5,0c-1.2,0-2.3,0-3.5,0c-1.2,0-1.7-0.6-2.3-1.2c-0.6-0.6-1.2-1.2-1.8-2.3c-0.6-0.6-0.6-1.7-0.6-3.5v-20.2
	c0-1.7-0.6-2.9-1.2-3.5c-1.2-0.6-2.3-1.2-4.1-1.2c-0.6,0-1.7,0-2.3,0.6c-1.2,0.6-1.8,0.6-1.8,1.2v0.6v0.6V157
	c-0.6,0-1.7,0.6-2.9,0.6c-1.2,0-2.3,0-3.5,0c-1.2,0-2.3,0-3.5,0c-1.2,0-1.7-0.6-2.3-1.2c-0.6-0.6-1.2-1.2-1.8-2.3
	c-0.6-0.6-0.6-1.7-0.6-3.5v-20.2c0-1.7-0.6-2.9-1.7-3.5c-1.2-0.6-2.3-1.2-3.5-1.2c-1.2,0-1.8,0-2.9,0.6c-0.6,0.6-1.2,0.6-1.8,1.2
	V157c-0.6,0-1.2,0.6-2.9,0.6c-1.2,0-2.3,0-3.5,0c-1.2,0-2.3,0-3.5,0c-1.2,0-1.7-0.6-2.3-1.2c-0.6-0.6-1.2-1.2-1.8-2.3
	c-0.6-0.6-0.6-1.7-0.6-3.5v-25.4c0-1.7,0.6-2.9,1.2-3.5c0.6-1.2,1.7-1.7,2.9-2.3c1.8-1.2,4.1-2.3,7-3.5
	C830.7,116.1,833.7,115.5,836.6,115.5z"/>
</svg>
